<svg xmlns="http://www.w3.org/2000/svg" width="51.818" height="46.407" viewBox="0 0 51.818 46.407"><g transform="translate(0)"><circle cx="4.519" cy="4.519" r="4.519" transform="translate(20.51)" fill="#fff"/><path d="M166.321,88.319l-.064,0h-3.374a6.266,6.266,0,0,0-6.147,6.382c0,.021,0,.043,0,.064v.964c0,.482.181,1.024.723,1.024h14.218c.542,0,.723-.542.723-1.024v-.964A6.266,6.266,0,0,0,166.321,88.319Z" transform="translate(-139.542 -78.195)" fill="#fff"/><path d="M47.948,129.745a.9.9,0,0,0,.9-.9,18.617,18.617,0,0,1,6.989-14.58A.844.844,0,0,0,55.961,113a.9.9,0,0,0-1.265-.12,20.484,20.484,0,0,0-7.651,15.966A.9.9,0,0,0,47.948,129.745Z" transform="translate(-41.619 -105.028)" fill="#fff"/><path d="M176.33,406.149h0a19.038,19.038,0,0,1-11.869,0,.9.9,0,0,0-1.138.581l-.007.021a.964.964,0,0,0,.6,1.145,20.91,20.91,0,0,0,6.446,1.024,20.3,20.3,0,0,0,6.567-1.084.9.9,0,0,0-.6-1.687Z" transform="translate(-144.457 -364.623)" fill="#fff"/><path d="M315.1,108.081l.012.008a18.737,18.737,0,0,1,7.892,15.243.9.9,0,0,0,1.808,0,20.6,20.6,0,0,0-8.676-16.749.964.964,0,0,0-1.265.241A.9.9,0,0,0,315.1,108.081Z" transform="translate(-278.421 -99.518)" fill="#fff"/><circle cx="4.519" cy="4.519" r="4.519" transform="translate(3.316 27.85)" fill="#fff"/><path d="M9.586,375.665H6.148A6.266,6.266,0,0,0,0,382.046c0,.021,0,.043,0,.064v.964c0,.482.181,1.024.723,1.024H14.944c.542,0,.723-.542.723-1.024v-.964A6.266,6.266,0,0,0,9.586,375.665Z" transform="translate(0 -337.692)" fill="#fff"/><circle cx="4.519" cy="4.519" r="4.519" transform="translate(39.465 27.85)" fill="#fff"/><path d="M323.055,375.665h-3.438a6.266,6.266,0,0,0-6.147,6.382c0,.021,0,.043,0,.064v.964c0,.482.181,1.024.723,1.024h14.219c.542,0,.723-.542.723-1.024v-.964A6.266,6.266,0,0,0,323.055,375.665Z" transform="translate(-277.321 -337.692)" fill="#fff"/></g></svg>