<svg xmlns="http://www.w3.org/2000/svg" width="919.121" height="345.34" viewBox="0 0 919.121 345.34"><g transform="translate(-40.439 -176.56)"><path d="M286.13,362.61l114.58-12.17s-69.58-71.14-83.96-75.84S286.13,362.61,286.13,362.61Z" fill="#f7ddc9"/><path d="M339.69,341.15c-26.29-24.21-36.87-53.82-23.63-66.14.17-.16.36-.3.53-.45-14.34-4.04-30.47,88.05-30.47,88.05L357.74,355A125.722,125.722,0,0,1,339.69,341.15Z" fill="#eacdb9"/><path d="M318.09,275.33a2.838,2.838,0,0,0-3.11-2.4,2.664,2.664,0,0,0-2.4,2.98,2.838,2.838,0,0,0,3.11,2.4A2.651,2.651,0,0,0,318.09,275.33Z" fill="#9b5b50"/><path d="M295.46,306.06s5.6,5.31,14.64.24c0,0-4.05-32.16,5.09-30.56l.36-1.32C309.09,264.58,295.63,273.71,295.46,306.06Z" fill="#ffe8d9"/><g opacity="0.5"><path d="M333.47,339.77l-2.01-3.76a8.528,8.528,0,0,1-5.46,1.37l-.61-2.97a7.889,7.889,0,0,0,5.17-1.23,4.473,4.473,0,0,0,1.62-5.99c-1.09-2.05-2.94-2.55-5.75-2.21-3.85.52-6.65.04-8.38-3.2a7.365,7.365,0,0,1,1.32-8.97l-2.01-3.76,1.86-1.22,1.93,3.61a7.878,7.878,0,0,1,4.59-1.26l.56,2.95a7.092,7.092,0,0,0-4.45,1.21,3.9,3.9,0,0,0-1.47,5.29c1.03,1.94,2.66,2.18,5.98,1.8,3.92-.46,6.51.45,8.28,3.76a7.843,7.843,0,0,1-1.35,9.44l2.07,3.87Z" fill="#723f3d"/></g><rect width="2.29" height="214.89" transform="translate(285.681 209.531) rotate(-10.091)" fill="#c9b695"/><rect width="2.29" height="35.06" transform="translate(290.239 235.147) rotate(-10.091)" fill="#998567"/><path d="M301.31,176.56l-39.94,7.11.49,65.57,65.54-17.37Z" fill="#fcc454"/><path d="M333.02,416.72l-18,3.21L304.96,427l39.94-7.11Z" fill="#c9b695"/><path d="M327.4,231.87l-17.77-37.68c2.71,17.78.75,33.93-4.56,43.6Z" fill="#ffaa45"/><path d="M261.52,203.71l.34,45.53,20.78-5.51C273.67,237.29,265.47,222.31,261.52,203.71Z" fill="#ffaa45"/><path d="M783.65,410.62c-32.3-18.86-50.26-23.46-59.22,17.04-3.5,15.82-22.61,35.08-22.61,35.08s21.69,24.72,41.07,8.29,9-44.59,21.38-52.5S783.65,410.62,783.65,410.62Z" fill="#c1a385"/><path d="M762.76,408.44c0-4.84,3.53-8.67,7.88-8.58s7.88,4.1,7.88,8.93-3.53,8.68-7.88,8.58S762.76,413.27,762.76,408.44Z" fill="#8c735a"/><path d="M913.58,506.86H698.78s63.18-101.13,72.68-101.75C842.54,400.48,913.58,506.86,913.58,506.86Z" fill="#e5cfb1"/><path d="M768.55,412.12c-16.01,27.58,4.76,69.61,46.43,94.74H698.78s63.18-101.13,72.68-101.75c.8-.05,1.59-.07,2.39-.1A39.028,39.028,0,0,0,768.55,412.12Z" fill="#d8bd9c"/><g opacity="0.3"><path d="M814.19,482.09l-2.81-6.93c-10.28-.6-17.53-5.24-19.67-10.51-2.4-5.93,1.15-9.66,9.84-12.99,7.33-2.85,10.15-4.77,8.75-8.24-1.08-2.66-5.09-5.58-12.44-5.18a24.48,24.48,0,0,0-11.1,2.92l-4.17-4.27c2.31-1.28,5.79-2.56,11.46-3.01l-2.62-6.46,5.91-.32,2.73,6.72c9.18.52,16.52,4.42,18.75,9.94,2.35,5.79-2.42,9.19-11.06,12.38-6.25,2.38-9.05,4.85-7.57,8.51,1.54,3.8,7.23,6.28,14,5.91a26.7,26.7,0,0,0,12.57-3.61l4.1,4.34c-2.66,1.85-7.9,3.36-13.41,3.73l2.73,6.73Z" fill="#723f3d"/></g><path d="M778.72,407.27c-12.79,18.38,2.59,55.4,11.84,64.87,0,0-18.13-11.42-22.58-38.7C765.19,416.34,778.72,407.27,778.72,407.27Z" fill="#d8bd9c"/><path d="M795.92,506.86h26.74s-19.64-5.68-23.89-8.98C795.16,495.08,795.92,506.86,795.92,506.86Z" fill="#efddca"/><path d="M482.64,281.53c-22.61-5.3-41.95-19.79-58.61-16.13-9.27,2.04-14.9,7.2-18.17,14.34-3.05,6.65-4.06,15.02-4.06,24.18h86.67Z" fill="#b29b8a"/><path d="M482.64,284.33c-22.61-4.64-41.95-17.31-58.61-14.11-9.27,1.78-14.9,6.3-18.17,12.54-3.05,5.82-4.06,13.14-4.06,21.15h86.67Z" fill="#a88d7b"/><path d="M452.81,302.15c0-3.47-3.96-5.98-8.2-5.55l-5.15.52c-1.42-11.69-9.98-24.08-19.23-24.08-10.13,0-18.34,10.15-18.34,22.67a28,28,0,0,0,.77,6.49H439.6v-.04h13.21Z" fill="#b29b8a"/><path d="M636.31,300.02H407.01a30.12,30.12,0,0,0-28.91,21.67l-16.53,56.5,22.33,64.87H651.36l33.14-80.11-20.83-45.37A30.074,30.074,0,0,0,636.31,300.02Z" fill="#8e56af"/><path d="M402.96,300.02c13.29,3.42,32.71,5.58,54.37,5.58s41.08-2.16,54.37-5.58Z" fill="#603189"/><path d="M472.98,300.02c2.68,21.52,4.11,41.63,3.1,59.02l-55.83,17.55,34.83-77.1Z" fill="#603189"/><path d="M530.67,398.74c-71.64,0-132.97-16.35-161.55-46.34l-7.54,25.78,22.33,64.87H651.37l33.14-80.11-1.42-10.28C664.96,345.03,595.19,398.74,530.67,398.74Z" fill="#603189"/><path d="M701.77,345.22h0c21.88,0,35.5,17.74,30.43,39.61L703.9,506.86H624.67l28.3-122.03C658.04,362.95,679.89,345.22,701.77,345.22Z" fill="#8e56af"/><path d="M551.58,365.42l5.98,36.29c1.02,5.07,18.48,12.05,23.01,9.25,48.11-29.72,68-57.72,153.65-73.9l.01-2.67S596.71,331.96,551.58,365.42Z" fill="#563c43"/><path d="M667.14,343.8c-47.35,7.01-84.75,19.05-86.27,8.78a4.5,4.5,0,0,1-.01-1.1c-11.62,3.76-21.75,8.35-29.29,13.94l5.98,36.29c1.02,5.07,18.48,12.05,23.01,9.25,48.11-29.72,68-57.72,153.65-73.9v-1.2C718.52,338.31,694.13,339.8,667.14,343.8Z" fill="#493239"/><path d="M626.52,289.66c-16.76.78-81.14,60.69-81.14,60.69l-6.2,41.3,26.83,20.55c15.21-1.86,30.84-17.67,37.68-32.6,9.68-21.12,27.37-47.54,29.07-48.57,3.53-2.13,63.2,15.43,63.2,15.43l1.67-1.61C697.63,344.86,637.17,289.17,626.52,289.66Z" fill="#563c43"/><path d="M624.25,313.31s-34.03,46.79-47.86,48.21c-9.25.95-12.61-11.03-10.01-29.95-12.07,10.47-21.01,18.78-21.01,18.78l-6.2,41.3L566,412.2c15.21-1.86,33.32-16.25,40.16-31.19,9.68-21.12,24.89-48.96,26.59-49.98,3.53-2.13,63.2,15.43,63.2,15.43l.28-.27Z" fill="#493239"/><path d="M430.26,328.73c-26.08,1.94-32.78-25.47-26.23-42.01l2.04.53c-1.8,4.05-4.44,24.72,7.45,29.97s20.94.02,23.58,4.91C439.55,326.66,434.09,328.45,430.26,328.73Z" fill="#b29b8a"/><path d="M470.95,317.15c-3.63-9.2-26.8-7.32-29.86-2.99s-4.98,36.18-29.18,57.65l51.33-8.66C466.42,356.83,474.58,326.35,470.95,317.15Z" fill="#f24979"/><path d="M449,352.14c-7.31-1.62-11.95-10.54-12.52-22.08-3.53,12.18-12.68,29.72-27.23,42.63l55.12-8.33c1.93-3.83,4.55-17.76,6.4-29.23C465.43,346.7,456.84,353.88,449,352.14Z" fill="#dd2c67"/><path d="M551.05,344.66c-1.12,26.7,7.12,45.27,29.86,66.08-12.31,8.92-54.68,15.85-135.68,11.4-25.39-1.39-48.21-10.63-43.75-31.02l-2.36-2.05,10.04-17,17.64-9.84S455.53,341.47,551.05,344.66Z" fill="#f24979"/><path d="M572.07,401.93c-19.77,11.17-49.66,18.29-83.11,18.29-36.22,0-68.24-8.35-87.79-21.15,2.34,14.88,22.25,21.88,44.06,23.08,81,4.45,123.36-2.48,135.68-11.4C577.66,407.77,574.74,404.84,572.07,401.93Z" fill="#dd2c67"/><path d="M541.12,389.97c0-18.5,3.82-34.93,9.73-45.32-20.19-.65-55.74,2.19-70.26,3.22-5.51,11.69-8.33,15.95-25.26,25.96-26.36,15.6-43.97,24.03-49.85,10.8a13.992,13.992,0,0,1-1.11-4.45l-5.25,8.89,2.36,2.05c-4.46,20.39,18.36,29.63,43.75,31.02,44.42,2.44,77.2,1.45,99.8-1.41A116.256,116.256,0,0,1,541.12,389.97Z" fill="#dd2c67"/><path d="M401.63,383.32l-18.48-25.01,22.3-4.46,17.9,10.3A71.028,71.028,0,0,0,401.63,383.32Z" fill="#ed7656"/><path d="M372.12,335.38c-1.43,4.23,1.58,12.04,7.51,18.34,6.93,7.37,17.56,13.39,19.79,13.65,4.87.57,18.02-11.58,18.3-14.31s-22.43-29.53-27.6-30.52C384.89,321.54,374.59,328.06,372.12,335.38Z" fill="#ffbb83"/><path d="M575.58,265.81l-28.79,3.5L525.61,344.6l27.02,2.79Z" fill="#f7ead5"/><path d="M570.34,268.53l-21.78,2.68-19.45,70.02h20.22Z" fill="#66c4ed"/><path d="M559.92,282.28l-12.27,1.51-10.96,39.44h11.39Z" fill="#f7ead5"/><path d="M552.71,340.72l-76.28,4.67v3.08l76.28-1.37Z" fill="#f7ead5"/><path d="M422.72,370.74c32.53,4.61,38.73,10.66,48.57,6.03s34.66,28.21,22.78,34.28-58.14,8.86-80.21,1.79c-11.14-3.57-16.95-16.85-14.54-26.94C401.69,376,412.07,369.23,422.72,370.74Z" fill="#f24979"/><path d="M471.29,376.77c-1.91.9,6.58,25.46,3.54,26.76-19.32,8.33-70.91-13.01-74.46-20.69a17.976,17.976,0,0,0-1.04,3.05c-2.41,10.1,3.4,23.38,14.54,26.94,22.06,7.06,68.33,4.27,80.21-1.79S481.13,372.14,471.29,376.77Z" fill="#dd2c67"/><path d="M502.92,333.8s-19.05,33.57-34.47,43.85c-3.28,2.19,5.95,37.37,25.17,32.7,20.36-4.94,23.78-74.93,23.78-74.93Z" fill="#ffbb83"/><path d="M510.94,353.33c-6.75,20.45-16.53,34.37-26.54,33.36-5.2-.52-10.17-4.72-13.13-11.14q-1.425,1.17-2.82,2.1c-3.28,2.19,5.95,37.37,25.17,32.7,15.76-3.83,21.37-46.63,23.1-65.78C517.23,338.99,513.1,346.79,510.94,353.33Z" fill="#ff9d66"/><path d="M481.2,300.86c-10.31-6.15-7.61-23.58-7.61-23.58s13.03-.75,20.03,3.75,7.94,18.87,7.94,18.87S488.24,305.06,481.2,300.86Z" fill="#b29b8a"/><path d="M487.32,267.33a19.672,19.672,0,0,0-7.44,11.84l10.07.63C490.57,275.55,487.32,267.33,487.32,267.33Z" fill="#b29b8a"/><path d="M486.7,269.79a12.979,12.979,0,0,0-4.92,7.84l6.67.41C488.85,275.24,486.7,269.79,486.7,269.79Z" fill="#6b5e55"/><path d="M507.89,282.92a19.7,19.7,0,0,1-8.57,11.05l-4.04-9.24C499.05,282.68,507.89,282.92,507.89,282.92Z" fill="#b29b8a"/><path d="M505.85,284.46a12.7,12.7,0,0,1-5.54,7.14l-2.62-5.98C500.13,284.3,505.85,284.46,505.85,284.46Z" fill="#6b5e55"/><path d="M393.35,372.55c-22.43-8.18-37.6-25.91-32.93-36.24,6.25-13.83,19.57-17.56,27.92-17.75l.07,3.92s-14.71,2.11-10.97,15.16c2.16,7.52,12.1,14.09,12.1,14.09l-2.59,6.91Z" fill="#603a30"/><ellipse cx="4.34" cy="7.18" rx="4.34" ry="7.18" transform="matrix(0.205, -0.979, 0.979, 0.205, 376.661, 358.729)" fill="#ffbb83"/><ellipse cx="2.6" cy="4.3" rx="2.6" ry="4.3" transform="matrix(0.134, -0.991, 0.991, 0.134, 380.958, 357.934)" fill="#ed7656"/><path d="M390.42,356.74c.12-.92-1-1.82-2.52-2.03s-2.84.37-2.97,1.29,1,1.82,2.52,2.03S390.3,357.65,390.42,356.74Z" fill="#ffbb83"/><path d="M475.9,279.67c2.08-3.61-10.12-12.98-15.43-9.61s-19.37,31.76-20.73,47.69c-.75,8.7,31.17,9.52,31.92,2.86C472.41,313.72,473.14,284.46,475.9,279.67Z" fill="#ffbb83"/><path d="M456.13,318.1c-6.83-1.51-15.29-3.19-7.85-28.17-4.21,9.34-7.89,20.05-8.55,27.81-.75,8.7,31.17,9.52,31.92,2.86.42-3.77.83-14.25,1.56-23.74C471.94,317.04,462.78,319.57,456.13,318.1Z" fill="#ff9d66"/><path d="M636.45,417H410.75a6.457,6.457,0,0,0-6.46,6.46v83.4H642.9v-83.4A6.455,6.455,0,0,0,636.45,417Z" fill="#8e56af"/><path d="M349.34,345.22h0c-21.88,0-35.5,17.74-30.43,39.61l28.3,122.03h79.23l-28.3-122.03C393.07,362.95,371.22,345.22,349.34,345.22Z" fill="#8e56af"/><path d="M694.79,347.87h7.27l10.46-12.23s-11.75,5.57-16.35,7.38S694.79,347.87,694.79,347.87Z" fill="#f7ead5"/><path d="M735.16,340.56l8.64-17.68s-13.03,9.7-13.69,13.16S735.16,340.56,735.16,340.56Z" fill="#f7ead5"/><path d="M465.62,377.65c-.71,18.26,10.1,39.35,16.66,39.35s17.37-3.19,17.15-10.14c0,0-9.71.04-29.03-30.09C469,374.58,465.66,376.49,465.62,377.65Z" fill="#f7ead5"/><path d="M437.29,327.18c-3.62-3.63-1.03-11.07,2.66-11.34s21.24,6.37,31.82,3.45c1.91-.53,1.62,6.44-.11,8.9C467.43,334.18,442.24,332.14,437.29,327.18Z" fill="#f7ead5"/><path d="M483.54,294.04c1.61,1.7,4.03-1.28,4.03-1.28s-1.82,2.84.28,4.5,5.92-1.19.65-5.32C483.86,288.31,479.48,289.77,483.54,294.04Z" fill="#ddcdc3"/><path d="M486.94,294.01a1.978,1.978,0,0,1-.14-3.31c.87-.33,3.25,1.62,3.05,2.26S487.92,294.63,486.94,294.01Z" fill="#6b5e55"/><path d="M484.76,285.59a1.638,1.638,0,0,1,.6,1.97c.05-.04.11-.06.15-.12a1.594,1.594,0,0,0-.52-2.14,1.543,1.543,0,0,0-2.18.02.612.612,0,0,0-.07.17A1.58,1.58,0,0,1,484.76,285.59Z" fill="#6b5e55"/><path d="M494.51,294.06a1.638,1.638,0,0,1,.6,1.97c.05-.04.11-.06.15-.12a1.594,1.594,0,0,0-.52-2.14,1.543,1.543,0,0,0-2.18.02.612.612,0,0,0-.07.17A1.567,1.567,0,0,1,494.51,294.06Z" fill="#6b5e55"/><rect width="196.74" height="9.93" transform="translate(425.03 496.94)" fill="#603189"/><path d="M420.77,506.86h15.42l-27.11-71.25Z" fill="#603189"/><path d="M628.33,506.86H612.91l27.12-71.25Z" fill="#603189"/><path d="M350.76,364.64c15.58,0,31.14,10.27,38.81,24.41-4.57-17.08-21.74-30.74-38.96-30.74h0c-14.16,0-24.01,9.24-25.21,22.01C329.4,370.88,338.62,364.64,350.76,364.64Z" fill="#603189"/><path d="M699.37,364.64c-15.58,0-31.14,10.27-38.81,24.41,4.57-17.08,21.74-30.74,38.96-30.74h0c14.16,0,24.01,9.24,25.21,22.01C720.72,370.88,711.5,364.64,699.37,364.64Z" fill="#603189"/><path d="M487.22,398.68c-2.43,5.15-5.88,8.4-9.73,8.4a8.834,8.834,0,0,1-6.44-3.29c3.46,7.76,7.89,13.22,11.23,13.22,6.56,0,17.37-3.19,17.15-10.14C499.43,406.86,495.35,406.86,487.22,398.68Z" fill="#e5d1b5"/><path d="M348.1,247.82a.085.085,0,0,0,0-.17c-.11-.01-.11.17,0,.17Z" fill="#fcc454"/><path d="M474.21,284.4c3.59-1.66,3.12-5.18,11.7-6.11,1.47-.16,1.93-3.46.33-3.79s-11.37-.33-13.43-.33S470.33,286.2,474.21,284.4Z" fill="#ffbb83"/><path d="M469.36,272.77c2.79-3.32,7.92-1.53,7.59,1.65S466.9,275.69,469.36,272.77Z" fill="#ffbb83"/><path d="M464.97,271.17c2.79-3.32,7.92-1.53,7.59,1.65S462.51,274.1,464.97,271.17Z" fill="#ffbb83"/><path d="M516.3,330.08c-12.37-2.15-14.77,1.98-16.92,10.65l15.98-.26a49.245,49.245,0,0,1,9.28-1.8C528.41,338.5,528.67,332.22,516.3,330.08Z" fill="#ffbb83"/><path d="M522.32,335.92c.77,4.64.6,6.7,2.23,6.96s3.44-.17,3.52-1.12-.47-6.65-1.87-7.15S522.32,335.92,522.32,335.92Z" fill="#ffbb83"/><path d="M516.39,335.57c.77,4.64.6,6.7,2.23,6.96s3.44-.17,3.52-1.12-.47-6.65-1.87-7.15S516.39,335.57,516.39,335.57Z" fill="#ffbb83"/><path d="M395.58,336.38c-.92-1.22-2.25-1.7-2.96-1.09s-.54,2.1.38,3.32,2.25,1.7,2.96,1.09S396.5,337.6,395.58,336.38Z" fill="#604748"/><path d="M389.88,330.3l-4.65,4.05a.888.888,0,0,0-.09,1.28l1.28,1.39a.951.951,0,0,0,1.32.05l4.65-4.05a.888.888,0,0,0,.09-1.28l-1.28-1.39A.941.941,0,0,0,389.88,330.3Z" fill="#603a30"/><path d="M400.55,332.38c-.71-.95-1.57-1.39-1.93-.99s-.07,1.51.64,2.46,1.57,1.39,1.92.99C401.55,334.43,401.26,333.33,400.55,332.38Z" fill="#604748"/><path d="M395.65,325.19l-2.15,1.85c-.18.16-.07.59.25.98l1.21,1.45c.32.38.73.57.91.41l2.15-1.85c.18-.16.07-.59-.25-.98l-1.21-1.45C396.23,325.22,395.83,325.04,395.65,325.19Z" fill="#603a30"/><path d="M398.26,335.95c5.45.73,8.71,1.65,9.22,3.46a3.242,3.242,0,0,1-1.21,2.99l.08.06s3.13-2.05,2.76-3.94C408.74,336.65,404.83,336.15,398.26,335.95Z" fill="#ed7656"/><path d="M409.21,343.95l-7.11,5.2s1.94,5.39,6.81,2.51C412.59,349.48,409.21,343.95,409.21,343.95Z" fill="#422931"/><path d="M409.84,346.84a9.761,9.761,0,0,0-.88-2.22l-5.7,4.31a4.669,4.669,0,0,0,1.84,2.04Z" fill="#ffefdc"/><path d="M261.42,299.88l-36.4.01c.3,5.54-1.99,10.79-5.55,15.62l40.41-1.58Z" fill="#9e9e46"/><path d="M379.63,439.57c-1.57-.79.49-1.86,4.22-.85,38.35,10.41,39.7,29.73,39.7,29.73s-13.76,13.36-28.74,6.53C394.81,474.98,390.36,444.97,379.63,439.57Z" fill="#e8c392"/><path d="M177.07,335.53l.83-13.55c-14.91.66-28.06,8.39-28.06,8.39l-.44,14.97S167.55,335.28,177.07,335.53Z" fill="#a2a53f"/><path d="M186.18,288.04l-11.85,6.62c8.62,12.19,22.22,19.08,22.22,19.08l12.84-7.72C209.39,306.01,191.12,296.19,186.18,288.04Z" fill="#a2a53f"/><path d="M274.67,302.71l-46.72,2.56-29.12,37.76h75.84Z" fill="#9e9e46"/><path d="M281.99,298.91l-31.4,1.16c1.26,4.78,1.03,9.31.32,14.12l33.64,2.84Z" fill="#8c8a38"/><path d="M277.51,312.75l-31.8.9a35.287,35.287,0,0,1,.72,14.38l33.64,2.84Z" fill="#8c8a38"/><path d="M277.79,327.15l-42,.84a23.952,23.952,0,0,1-1.72,13.36l43.72,2.64Z" fill="#8c8a38"/><path d="M221.39,326.71H197.07a26.88,26.88,0,0,1,0,14.24h24.32V326.71Z" fill="#9e9e46"/><path d="M234.99,314.07l-20.96-1.44c.42,4.86-.9,10.13-3.36,15.68h24.32V314.07Z" fill="#9e9e46"/><path d="M211.43,340.95a30.067,30.067,0,0,0-.13-14.17l-.47.01a26.235,26.235,0,0,1-1.72,14.01Z" fill="#8c8a38"/><path d="M230.61,328.95l-5.48-.5-1.82,13.14h6.12Z" fill="#adaa50"/><path d="M227.71,313.71l-5.46-.54-2.22,14.34h6.12Z" fill="#adaa50"/><path d="M242.15,299.89h-6.44l-1.2,13.38h6.12Z" fill="#adaa50"/><path d="M227.52,327.71l-16.49-.83,16.72,2.05,24.6.05,1.28-2.03Z" fill="#8c8a38"/><path d="M236.51,313.27l-15.4-.15,15.62,1.36,22.1-.09,2.08-2.96Z" fill="#8c8a38"/><path d="M235.85,328.29a33.715,33.715,0,0,0,.71-15.01l-.47.01a29.886,29.886,0,0,1-2.55,14.84Z" fill="#8c8a38"/><path d="M466.98,506.86H259.95c13.27-24.64,111.07-73.56,121.76-67.84C393.37,445.28,466.98,506.86,466.98,506.86Z" fill="#f4d3a2"/><path d="M379.98,438.6c-16.74-1.38-107.3,44.62-120.03,68.26h96.26C339.45,472.24,350,443.81,379.98,438.6Z" fill="#e8c392"/><rect width="110.08" height="11.04" transform="translate(220.43 488.62)" fill="#7a9993"/><path d="M281.35,481.26H265.99l7.92,25.6h8.64Z" fill="#7a9993"/><path d="M339.67,481.26H324.31l7.92,25.6h8.64Z" fill="#a5c4be"/><path d="M333.91,481.26H318.55l7.92,25.6h8.64Z" fill="#7a9993"/><path d="M257.21,481.26H241.85l6.72,25.6h8.64Z" fill="#a5c4be"/><path d="M251.93,481.26H236.57l6.72,25.6h8.64Z" fill="#7a9993"/><rect width="74.4" height="156.47" transform="translate(182.83 340.47)" fill="#7a9993"/><path d="M333.07,340.47H251.95V496.94h88.32Z" fill="#a5c4be"/><path d="M253.17,474.11l82.43-52.27-2.83-61.61-79.6,50.47Z" fill="#c5d3d1"/><path d="M331.47,488.81H260.8V348.6h64.99Zm-68.76-1.92h67.56l-5.52-136.37H262.72V486.89Z" fill="#7a9993"/><path d="M236.22,506.86H107.64s42.86-75.41,66.08-81.74S236.22,506.86,236.22,506.86Z" fill="#e8c392"/><path d="M234.14,502.35c-16.77-33.49-43.69-58.47-60.48-55.96-16.01,2.39-17.07,28.91-3.08,60.47h65.64S235.48,505.2,234.14,502.35Z" fill="#f4d3a2"/><path d="M182.35,425.79c0-1.48-1.79-2.68-4-2.68s-4,1.2-4,2.68,1.79,2.68,4,2.68S182.35,427.27,182.35,425.79Z" fill="#8e6050"/><g opacity="0.5"><path d="M407.32,486.08l-4.47-4.13a22.783,22.783,0,0,1-9.86,1.69l-1.56-3.33a21.474,21.474,0,0,0,9.25-1.38c3.42-1.45,3.94-3.9,1.62-5.97-2.2-1.96-5.37-2.49-10.15-2.27-6.81.35-12.01-.21-15.31-3.41-3.05-2.96-2.08-6.01,2.22-7.79l-3.48-3.22,3.12-.75,3.33,3.02a23.438,23.438,0,0,1,7.4-.56l1.18,2.37a20.992,20.992,0,0,0-7.26.62c-3.92,1.09-3.77,3.09-2.3,4.47,1.94,1.83,4.85,2.14,10.57,1.97,6.47-.21,10.81.73,14.31,3.77,3.19,2.78,3.85,6.51-.16,9.27l4.56,4.14Z" fill="#723f3d"/></g><g opacity="0.5"><path d="M161.9,493.99l-.05-5.2a25.392,25.392,0,0,1-9.93-3.6l1.52-3.24a23.163,23.163,0,0,0,9.35,3.47c4.6.62,7.69-1.07,7.66-4.01-.03-2.83-2.57-4.92-7.38-7.11-6.62-2.95-10.73-5.87-10.77-10.35-.04-4.27,3.75-7,9.7-6.97l-.05-5.2,4.01.54.05,4.99a23.289,23.289,0,0,1,8.44,2.94l-1.59,3.18a21.021,21.021,0,0,0-8.17-2.85c-4.99-.67-6.84,1.44-6.83,3.5.02,2.68,2.43,4.34,8.09,6.95,6.69,3.06,10.08,6.19,10.13,10.78.04,4.07-3.49,7.4-10.15,7.37l.05,5.35Z" fill="#723f3d"/></g><path d="M180.31,425.59c1.63-.41,0-1.92-3.67-1.8-37.77,1.29-43.72,19.71-43.72,19.71s9.37,16.11,24.8,12.93C157.71,456.44,169.13,428.37,180.31,425.59Z" fill="#f4d3a2"/><path d="M161.42,250.3l8.41,9.69c11.17-9.81,16.25-23.29,16.25-23.29l-9.66-10.41C176.41,226.29,169.01,244.49,161.42,250.3Z" fill="#adaa50"/><path d="M206.84,407.19l12.49-2.92c-3.46-14.45-13.02-25.24-13.02-25.24l-13.71,3.69C192.6,382.73,205.24,397.77,206.84,407.19Z" fill="#adaa50"/><path d="M311.86,429.76c-5.17-4.87-1.6-16.23,1.55-16.6S311.86,429.76,311.86,429.76Z" fill="#7a9993"/><ellipse cx="5.24" cy="2.8" rx="5.24" ry="2.8" transform="translate(184.67 298.63)" fill="#baba4a"/><path d="M160.45,337.28c1.39.67,3.54-.91,4.79-3.52s1.13-5.27-.26-5.94-3.54.91-4.79,3.52S159.06,336.61,160.45,337.28Z" fill="#baba4a"/><path d="M177.09,247.04c.73-1.36-.3-3.6-2.29-4.99s-4.19-1.42-4.92-.05.3,3.6,2.29,4.99S176.36,248.41,177.09,247.04Z" fill="#baba4a"/><path d="M211.82,391.37c-1.08-1.71-3.87-2.49-6.24-1.75s-3.41,2.74-2.33,4.45,3.87,2.49,6.24,1.75S212.9,393.09,211.82,391.37Z" fill="#baba4a"/><path d="M690.59,460.03l62.31,13.46,55.71,33.37H649.59Z" fill="#afaf3e"/><path d="M760.11,369.79s10.35-14.25,3.14-30.64l11.68-3.86c9.7,22.5-1.32,39.86-1.32,39.86Z" fill="#afaf3e"/><path d="M607.11,262.33s14.7-9.7,13.71-27.59l12.29.5c1.17,24.47-15.26,36.85-15.26,36.85Z" fill="#afaf3e"/><path d="M653.65,392.96s5,16.89,22.4,21.15L672,425.72c-23.75-6.01-30.82-25.32-30.82-25.32Z" fill="#afaf3e"/><path d="M681.39,452.32s13.4,8.77,27.02-.16l4.45,11.2c-18.71,12.05-34.89,2.95-34.89,2.95Z" fill="#afaf3e"/><path d="M750.51,467.5a26.534,26.534,0,0,0-25.4,10.5l-7.49-8.84c14.08-18.51,31.99-16.14,31.99-16.14Z" fill="#afaf3e"/><path d="M766.2,467.34s5.14,16.61,20.57,19.97l-3.03,11.8c-21.08-4.78-28.13-23.71-28.13-23.71Z" fill="#c6c34a"/><path d="M730.62,475.2s9.41,13.97,24.99,11.7l.33,12.29a36.947,36.947,0,0,1-33.2-12.58Z" fill="#c6c34a"/><path d="M782.6,473.74s1.72-17.53-12.8-28.03l8.13-9.23c19.75,14.51,19.03,35.06,19.03,35.06Z" fill="#afaf3e"/><path d="M672.33,463.46s3.03,17.27,17.89,23.09l-4.46,11.2c-20.27-8.13-24.91-28.01-24.91-28.01Z" fill="#afaf3e"/><path d="M694.41,246.9s7.63,15.88,25.48,17.32l-2.15,12.11c-24.4-2.15-34.45-20.1-34.45-20.1Z" fill="#afaf3e"/><path d="M696.85,262.79c.72-2.01,3.31-2.91,5.78-2.03s3.89,3.23,3.17,5.24-3.31,2.91-5.78,2.03S696.13,264.8,696.85,262.79Z" fill="#c6c34a"/><path d="M861.89,360.12s16.04,7.28,30.65-3.09l6.13,10.67c-20.09,14.02-39.32,6.72-39.32,6.72Z" fill="#afaf3e"/><path d="M873.96,370.74c-.74-2,.66-4.36,3.13-5.26s5.06-.02,5.8,1.98-.66,4.36-3.13,5.26S874.7,372.74,873.96,370.74Z" fill="#c6c34a"/><path d="M619.95,256.39c-1.63-1.37-1.59-4.11.1-6.12s4.38-2.54,6.01-1.17,1.59,4.11-.1,6.12S621.58,257.75,619.95,256.39Z" fill="#c6c34a"/><path d="M656.11,412.62c.3-1.86,2.49-3.05,4.88-2.67s4.1,2.21,3.8,4.06-2.49,3.05-4.88,2.67S655.81,414.48,656.11,412.62Z" fill="#c6c34a"/><ellipse cx="4.4" cy="3.41" rx="4.4" ry="3.41" transform="translate(767.107 358.071) rotate(-77.626)" fill="#c6c34a"/><path d="M784.86,459.89c-1.87.29-3.68-1.42-4.05-3.82s.86-4.58,2.73-4.86,3.68,1.42,4.05,3.82S786.73,459.6,784.86,459.89Z" fill="#c6c34a"/><path d="M573.25,429.84h21.58l-.01,28.54H573.35Z" fill="#f9deb7"/><path d="M593.69,450.56a7.168,7.168,0,0,0,.81.08,6.382,6.382,0,1,0,0-12.74,7.167,7.167,0,0,0-.81.08v-3.72c.27-.02.54-.04.81-.04,5.91,0,10.7,4.5,10.7,10.06s-4.79,10.06-10.7,10.06c-.27,0-.54-.02-.81-.04Z" fill="#edd0ae"/><path d="M579.22,451.02c6.26,0,11.34-9.46,11.34-21.13v-.06h4.27v28.54H573.35l-.03-10.48A7.913,7.913,0,0,0,579.22,451.02Z" fill="#edd0ae"/><path d="M584.69,422.7c.26-12.27-15.5-10.34-11.43-17.92s27.25,1.93,25.48-5.72c-1.89-8.15-21.24-5.01-24.92-8.27-3.15-2.79-3.37-10.5,4.43-12.61,18.72-5.06,11.43-18.88,11.43-18.88,18.81,20.02-6.94,21.74-8.37,23.94-5.02,7.75,20.19,1.34,19.67,16.85-.3,8.96-19.31,3.12-21.84,6.92C576.88,410.44,588.11,411.78,584.69,422.7Z" fill="#fff1dc"/><path d="M687.16,464.74h-4.87v42.12h2.82Z" fill="#c9b695"/><path d="M642.73,464.74h-4.88v42.12h2.83Z" fill="#c9b695"/><path d="M515,464.74h-4.87v42.12h2.82Z" fill="#c9b695"/><path d="M467.65,464.74h-4.88v42.12h2.83Z" fill="#c9b695"/><rect width="194.98" height="8.21" transform="translate(447.76 457.71)" fill="#eadcbe"/><rect width="69.34" height="8.21" transform="translate(637.61 457.71)" fill="#f7ead5"/><path d="M959.56,506.9H40.44s233.48,15,474.08,15S959.56,506.9,959.56,506.9Z" fill="#f9c138"/></g></svg>