<?xml version="1.0" encoding="utf-8"?>
<!-- Generator: Adobe Illustrator 23.0.2, SVG Export Plug-In . SVG Version: 6.00 Build 0)  -->
<svg version="1.1" id="_x31_" xmlns="http://www.w3.org/2000/svg" xmlns:xlink="http://www.w3.org/1999/xlink" x="0px" y="0px"
	 viewBox="0 0 1000 600" style="enable-background:new 0 0 1000 600;" xml:space="preserve">
<style type="text/css">
	.st0{fill:#FFFFFF;}
	.st1{fill:#F7DDC9;}
	.st2{fill:#EACDB9;}
	.st3{fill:#9B5B50;}
	.st4{fill:#FFE8D9;}
	.st5{opacity:0.5;}
	.st6{fill:#723F3D;}
	.st7{fill:#C9B695;}
	.st8{fill:#998567;}
	.st9{fill:#FCC454;}
	.st10{fill:#FFAA45;}
	.st11{fill:#C1A385;}
	.st12{fill:#8C735A;}
	.st13{fill:#E5CFB1;}
	.st14{fill:#D8BD9C;}
	.st15{opacity:0.3;}
	.st16{fill:#EFDDCA;}
	.st17{fill:#B29B8A;}
	.st18{fill:#A88D7B;}
	.st19{fill:#8E56AF;}
	.st20{fill:#603189;}
	.st21{fill:#563C43;}
	.st22{fill:#493239;}
	.st23{fill:#F24979;}
	.st24{fill:#DD2C67;}
	.st25{fill:#ED7656;}
	.st26{fill:#FFBB83;}
	.st27{fill:#F7EAD5;}
	.st28{fill:#66C4ED;}
	.st29{fill:#FF9D66;}
	.st30{fill:#6B5E55;}
	.st31{fill:#603A30;}
	.st32{fill:#DDCDC3;}
	.st33{fill:#E5D1B5;}
	.st34{fill:#604748;}
	.st35{fill:#422931;}
	.st36{fill:#FFEFDC;}
	.st37{fill:#9E9E46;}
	.st38{fill:#E8C392;}
	.st39{fill:#A2A53F;}
	.st40{fill:#8C8A38;}
	.st41{fill:#ADAA50;}
	.st42{fill:#F4D3A2;}
	.st43{fill:#7A9993;}
	.st44{fill:#A5C4BE;}
	.st45{fill:#C5D3D1;}
	.st46{fill:#8E6050;}
	.st47{fill:#BABA4A;}
	.st48{fill:#AFAF3E;}
	.st49{fill:#C6C34A;}
	.st50{fill:#F9DEB7;}
	.st51{fill:#EDD0AE;}
	.st52{fill:#FFF1DC;}
	.st53{fill:#EADCBE;}
	.st54{fill:#F9C138;}
</style>
<g>
	<g>
		<path class="st0" d="M188.39,65.06c4.15,0,7.39,1.23,9.73,3.68c2.34,2.46,3.51,5.7,3.51,9.73v2.46h-7.45v-1.84
			c0-1.99-0.53-3.57-1.58-4.74c-1.05-1.17-2.51-1.75-4.38-1.75c-2.16,0-3.76,0.72-4.78,2.15c-1.02,1.43-1.53,3.17-1.53,5.22
			c0,1.7,0.31,3.29,0.92,4.78c0.61,1.49,1.5,3.06,2.67,4.69c0.76,1.11,1.71,2.4,2.85,3.86c1.14,1.46,2.31,3,3.51,4.6
			c1.2,1.61,2.35,3.19,3.46,4.74c1.11,1.55,2.07,2.97,2.89,4.25c1.34,2.16,2.32,4.21,2.94,6.14c0.61,1.93,0.92,4.15,0.92,6.66
			c0,5.09-1.11,9.11-3.33,12.06c-2.22,2.95-5.7,4.43-10.44,4.43c-2.28,0-4.31-0.35-6.09-1.05c-1.78-0.7-3.29-1.65-4.52-2.85
			c-1.23-1.2-2.18-2.62-2.85-4.25c-0.67-1.64-1.01-3.39-1.01-5.26v-3.68l7.45,1.93v1.67c0,1.64,0.57,3.07,1.71,4.3
			c1.14,1.23,2.73,1.84,4.78,1.84c2.22,0,3.87-0.7,4.95-2.1c1.08-1.4,1.62-3.39,1.62-5.96c0-1.58-0.25-3.19-0.75-4.82
			c-0.5-1.64-1.39-3.45-2.67-5.44c-0.64-0.99-1.45-2.11-2.41-3.33c-0.96-1.23-1.97-2.51-3.03-3.86c-1.05-1.34-2.09-2.7-3.11-4.08
			c-1.02-1.37-1.94-2.7-2.76-3.99c-1.99-3.16-3.35-5.95-4.08-8.38c-0.73-2.42-1.1-4.75-1.1-6.97c0-4.56,1.27-8.17,3.81-10.83
			C180.8,66.39,184.18,65.06,188.39,65.06z"/>
		<path class="st0" d="M216.54,66.29v56.04c0,1.99,0.57,3.49,1.71,4.52c1.14,1.02,2.59,1.53,4.34,1.53c1.87,0,3.38-0.51,4.52-1.53
			c1.14-1.02,1.71-2.53,1.71-4.52V66.29h7.89v56.12c0,2.16-0.37,4.09-1.1,5.79c-0.73,1.7-1.74,3.14-3.03,4.34
			c-1.29,1.2-2.79,2.1-4.52,2.72c-1.73,0.61-3.58,0.92-5.57,0.92c-1.99,0-3.83-0.31-5.52-0.92c-1.7-0.61-3.17-1.52-4.43-2.72
			c-1.26-1.2-2.25-2.64-2.98-4.34c-0.73-1.7-1.1-3.62-1.1-5.79V66.29H216.54z"/>
		<path class="st0" d="M252.14,122.41c0,1.99,0.54,3.48,1.62,4.47c1.08,0.99,2.5,1.49,4.25,1.49s3.19-0.5,4.3-1.49
			c1.11-0.99,1.67-2.48,1.67-4.47v-1.4l7.45-1.93v3.51c0,2.1-0.37,3.99-1.1,5.66c-0.73,1.67-1.71,3.1-2.94,4.3
			c-1.23,1.2-2.67,2.1-4.34,2.72c-1.67,0.61-3.46,0.92-5.39,0.92c-1.87,0-3.63-0.31-5.26-0.92c-1.64-0.61-3.07-1.52-4.3-2.72
			c-1.23-1.2-2.19-2.63-2.89-4.3c-0.7-1.67-1.05-3.55-1.05-5.66V78.65c0-2.1,0.35-3.99,1.05-5.66c0.7-1.67,1.67-3.1,2.89-4.3
			c1.23-1.2,2.69-2.1,4.38-2.72c1.69-0.61,3.56-0.92,5.61-0.92c4.09,0,7.34,1.21,9.73,3.64c2.4,2.43,3.6,5.74,3.6,9.95v2.28h-7.45
			v-2.1c0-1.99-0.51-3.48-1.53-4.47c-1.02-0.99-2.44-1.49-4.25-1.49c-1.87,0-3.35,0.5-4.43,1.49c-1.08,1-1.62,2.49-1.62,4.47V122.41
			z"/>
		<path class="st0" d="M284.67,122.41c0,1.99,0.54,3.48,1.62,4.47c1.08,0.99,2.5,1.49,4.25,1.49s3.19-0.5,4.3-1.49
			c1.11-0.99,1.67-2.48,1.67-4.47v-1.4l7.45-1.93v3.51c0,2.1-0.37,3.99-1.1,5.66c-0.73,1.67-1.71,3.1-2.94,4.3
			c-1.23,1.2-2.67,2.1-4.34,2.72c-1.67,0.61-3.46,0.92-5.39,0.92c-1.87,0-3.63-0.31-5.26-0.92c-1.64-0.61-3.07-1.52-4.3-2.72
			c-1.23-1.2-2.19-2.63-2.89-4.3c-0.7-1.67-1.05-3.55-1.05-5.66V78.65c0-2.1,0.35-3.99,1.05-5.66c0.7-1.67,1.67-3.1,2.89-4.3
			c1.23-1.2,2.69-2.1,4.38-2.72c1.69-0.61,3.56-0.92,5.61-0.92c4.09,0,7.34,1.21,9.73,3.64c2.4,2.43,3.6,5.74,3.6,9.95v2.28h-7.45
			v-2.1c0-1.99-0.51-3.48-1.53-4.47c-1.02-0.99-2.44-1.49-4.25-1.49c-1.87,0-3.35,0.5-4.43,1.49c-1.08,1-1.62,2.49-1.62,4.47V122.41
			z"/>
		<path class="st0" d="M333.08,66.29v7.8h-14.64v21.57h10.35v7.8h-10.35v23.68h14.64v7.8h-22.71V66.29H333.08z"/>
		<path class="st0" d="M352.37,65.06c4.15,0,7.39,1.23,9.73,3.68c2.34,2.46,3.51,5.7,3.51,9.73v2.46h-7.45v-1.84
			c0-1.99-0.53-3.57-1.58-4.74c-1.05-1.17-2.51-1.75-4.38-1.75c-2.16,0-3.76,0.72-4.78,2.15c-1.02,1.43-1.53,3.17-1.53,5.22
			c0,1.7,0.31,3.29,0.92,4.78c0.61,1.49,1.5,3.06,2.67,4.69c0.76,1.11,1.71,2.4,2.85,3.86c1.14,1.46,2.31,3,3.51,4.6
			c1.2,1.61,2.35,3.19,3.46,4.74c1.11,1.55,2.07,2.97,2.89,4.25c1.34,2.16,2.32,4.21,2.94,6.14c0.61,1.93,0.92,4.15,0.92,6.66
			c0,5.09-1.11,9.11-3.33,12.06c-2.22,2.95-5.7,4.43-10.44,4.43c-2.28,0-4.31-0.35-6.09-1.05c-1.78-0.7-3.29-1.65-4.52-2.85
			c-1.23-1.2-2.18-2.62-2.85-4.25c-0.67-1.64-1.01-3.39-1.01-5.26v-3.68l7.45,1.93v1.67c0,1.64,0.57,3.07,1.71,4.3
			c1.14,1.23,2.73,1.84,4.78,1.84c2.22,0,3.87-0.7,4.95-2.1c1.08-1.4,1.62-3.39,1.62-5.96c0-1.58-0.25-3.19-0.75-4.82
			c-0.5-1.64-1.39-3.45-2.67-5.44c-0.64-0.99-1.45-2.11-2.41-3.33c-0.96-1.23-1.97-2.51-3.03-3.86c-1.05-1.34-2.09-2.7-3.11-4.08
			c-1.02-1.37-1.94-2.7-2.76-3.99c-1.99-3.16-3.35-5.95-4.08-8.38c-0.73-2.42-1.1-4.75-1.1-6.97c0-4.56,1.27-8.17,3.81-10.83
			C344.79,66.39,348.16,65.06,352.37,65.06z"/>
		<path class="st0" d="M385.34,65.06c4.15,0,7.39,1.23,9.73,3.68c2.34,2.46,3.51,5.7,3.51,9.73v2.46h-7.45v-1.84
			c0-1.99-0.53-3.57-1.58-4.74c-1.05-1.17-2.51-1.75-4.38-1.75c-2.16,0-3.76,0.72-4.78,2.15c-1.02,1.43-1.53,3.17-1.53,5.22
			c0,1.7,0.31,3.29,0.92,4.78c0.61,1.49,1.5,3.06,2.67,4.69c0.76,1.11,1.71,2.4,2.85,3.86c1.14,1.46,2.31,3,3.51,4.6
			c1.2,1.61,2.35,3.19,3.46,4.74c1.11,1.55,2.07,2.97,2.89,4.25c1.34,2.16,2.32,4.21,2.94,6.14c0.61,1.93,0.92,4.15,0.92,6.66
			c0,5.09-1.11,9.11-3.33,12.06c-2.22,2.95-5.7,4.43-10.44,4.43c-2.28,0-4.31-0.35-6.09-1.05c-1.78-0.7-3.29-1.65-4.52-2.85
			c-1.23-1.2-2.18-2.62-2.85-4.25c-0.67-1.64-1.01-3.39-1.01-5.26v-3.68l7.45,1.93v1.67c0,1.64,0.57,3.07,1.71,4.3
			c1.14,1.23,2.73,1.84,4.78,1.84c2.22,0,3.87-0.7,4.95-2.1c1.08-1.4,1.62-3.39,1.62-5.96c0-1.58-0.25-3.19-0.75-4.82
			c-0.5-1.64-1.39-3.45-2.67-5.44c-0.64-0.99-1.45-2.11-2.41-3.33c-0.96-1.23-1.97-2.51-3.03-3.86c-1.05-1.34-2.09-2.7-3.11-4.08
			c-1.02-1.37-1.94-2.7-2.76-3.99c-1.99-3.16-3.35-5.95-4.08-8.38c-0.73-2.42-1.1-4.75-1.1-6.97c0-4.56,1.27-8.17,3.81-10.83
			C377.76,66.39,381.14,65.06,385.34,65.06z"/>
		<path class="st0" d="M429.28,66.29v7.8h-15.61v23.85h11.49v7.8h-11.49v29.2h-8.07V66.29H429.28z"/>
		<path class="st0" d="M442.96,66.29v56.04c0,1.99,0.57,3.49,1.71,4.52c1.14,1.02,2.59,1.53,4.34,1.53c1.87,0,3.38-0.51,4.52-1.53
			c1.14-1.02,1.71-2.53,1.71-4.52V66.29h7.89v56.12c0,2.16-0.37,4.09-1.1,5.79c-0.73,1.7-1.74,3.14-3.03,4.34
			c-1.29,1.2-2.79,2.1-4.52,2.72c-1.73,0.61-3.58,0.92-5.57,0.92c-1.99,0-3.83-0.31-5.52-0.92c-1.7-0.61-3.17-1.52-4.43-2.72
			c-1.26-1.2-2.25-2.64-2.98-4.34c-0.73-1.7-1.1-3.62-1.1-5.79V66.29H442.96z"/>
		<path class="st0" d="M479.09,66.29v60.86h12.89v7.8h-20.96V66.29H479.09z"/>
		<path class="st0" d="M537.75,66.29v7.8h-15.61v23.85h11.49v7.8h-11.49v29.2h-8.07V66.29H537.75z"/>
		<path class="st0" d="M557.48,66.29c4.21,0,7.53,1.2,9.95,3.59c2.43,2.4,3.64,5.73,3.64,10v9.56c0,2.75-0.41,4.88-1.23,6.4
			c-0.82,1.52-2.02,2.63-3.6,3.33c1.7,0.7,3.01,1.84,3.95,3.42c0.93,1.58,1.4,3.77,1.4,6.58v25.78h-7.98v-26.04
			c0-2.16-0.42-3.7-1.27-4.6c-0.85-0.91-2.5-1.36-4.95-1.36h-5.96v32.01h-7.89V66.29H557.48z M551.43,96.01h5.44
			c2.4,0,4.05-0.48,4.96-1.45c0.91-0.96,1.36-2.56,1.36-4.78v-8.94c0-4.62-2.11-6.93-6.31-6.93h-5.44V96.01z"/>
		<path class="st0" d="M601.68,66.29v7.8h-14.64v21.57h10.35v7.8h-10.35v23.68h14.64v7.8h-22.71V66.29H601.68z"/>
		<path class="st0" d="M630.97,66.29v7.8h-14.64v21.57h10.35v7.8h-10.35v23.68h14.64v7.8h-22.71V66.29H630.97z"/>
		<path class="st0" d="M645.61,66.29v60.86h12.89v7.8h-20.96V66.29H645.61z"/>
		<path class="st0" d="M681.39,66.29l11.93,68.66h-7.8l-1.58-9.91h-12.8l-1.49,9.91h-7.8l11.58-68.66H681.39z M672.18,118.29h10.7
			l-5.44-34.38L672.18,118.29z"/>
		<path class="st0" d="M707.7,66.29l11.66,47.35V66.29h7.02v68.66h-7.19l-13.24-50.51v50.51h-7.01V66.29H707.7z"/>
		<path class="st0" d="M741.98,122.41c0,1.99,0.54,3.48,1.62,4.47c1.08,0.99,2.5,1.49,4.25,1.49s3.19-0.5,4.3-1.49
			c1.11-0.99,1.67-2.48,1.67-4.47v-1.4l7.46-1.93v3.51c0,2.1-0.37,3.99-1.1,5.66c-0.73,1.67-1.71,3.1-2.94,4.3
			c-1.23,1.2-2.67,2.1-4.34,2.72c-1.67,0.61-3.46,0.92-5.39,0.92c-1.87,0-3.63-0.31-5.26-0.92c-1.64-0.61-3.07-1.52-4.3-2.72
			c-1.23-1.2-2.19-2.63-2.89-4.3c-0.7-1.67-1.05-3.55-1.05-5.66V78.65c0-2.1,0.35-3.99,1.05-5.66c0.7-1.67,1.67-3.1,2.89-4.3
			c1.23-1.2,2.69-2.1,4.38-2.72c1.7-0.61,3.57-0.92,5.61-0.92c4.09,0,7.34,1.21,9.73,3.64c2.4,2.43,3.6,5.74,3.6,9.95v2.28h-7.46
			v-2.1c0-1.99-0.51-3.48-1.54-4.47c-1.02-0.99-2.44-1.49-4.25-1.49c-1.87,0-3.35,0.5-4.43,1.49c-1.08,1-1.62,2.49-1.62,4.47V122.41
			z"/>
		<path class="st0" d="M790.39,66.29v7.8h-14.64v21.57h10.35v7.8h-10.35v23.68h14.64v7.8h-22.71V66.29H790.39z"/>
		<path class="st0" d="M810.91,66.29c4.21,0,7.53,1.2,9.95,3.59c2.43,2.4,3.64,5.73,3.64,10v9.56c0,2.75-0.41,4.88-1.23,6.4
			c-0.82,1.52-2.02,2.63-3.6,3.33c1.7,0.7,3.01,1.84,3.95,3.42c0.94,1.58,1.4,3.77,1.4,6.58v25.78h-7.98v-26.04
			c0-2.16-0.43-3.7-1.27-4.6c-0.85-0.91-2.5-1.36-4.96-1.36h-5.96v32.01h-7.89V66.29H810.91z M804.86,96.01h5.44
			c2.4,0,4.05-0.48,4.95-1.45c0.91-0.96,1.36-2.56,1.36-4.78v-8.94c0-4.62-2.1-6.93-6.31-6.93h-5.44V96.01z"/>
	</g>
	<g>
		<path class="st1" d="M286.13,362.61l114.58-12.17c0,0-69.58-71.14-83.96-75.84C302.37,269.89,286.13,362.61,286.13,362.61z"/>
		<path class="st2" d="M339.69,341.15c-26.29-24.21-36.87-53.82-23.63-66.14c0.17-0.16,0.36-0.3,0.53-0.45
			c-14.34-4.04-30.47,88.05-30.47,88.05l71.62-7.61C351.62,351.15,345.52,346.51,339.69,341.15z"/>
		<path class="st3" d="M318.09,275.33c-0.2-1.48-1.59-2.56-3.11-2.4c-1.52,0.16-2.59,1.5-2.4,2.98c0.2,1.48,1.59,2.56,3.11,2.4
			C317.22,278.15,318.29,276.81,318.09,275.33z"/>
		<path class="st4" d="M295.46,306.06c0,0,5.6,5.31,14.64,0.24c0,0-4.05-32.16,5.09-30.56l0.36-1.32
			C309.09,264.58,295.63,273.71,295.46,306.06z"/>
		<g class="st5">
			<path class="st6" d="M333.47,339.77l-2.01-3.76c-1.76,1.11-3.91,1.62-5.46,1.37l-0.61-2.97c1.55,0.19,3.49-0.13,5.17-1.23
				c2.13-1.4,2.75-3.87,1.62-5.99c-1.09-2.05-2.94-2.55-5.75-2.21c-3.85,0.52-6.65,0.04-8.38-3.2c-1.65-3.09-1.13-6.6,1.32-8.97
				l-2.01-3.76l1.86-1.22l1.93,3.61c1.84-1.11,3.38-1.32,4.59-1.26l0.56,2.95c-0.87-0.04-2.53-0.05-4.45,1.21
				c-2.31,1.52-2.26,3.8-1.47,5.29c1.03,1.94,2.66,2.18,5.98,1.8c3.92-0.46,6.51,0.45,8.28,3.76c1.57,2.94,1.39,6.78-1.35,9.44
				l2.07,3.87L333.47,339.77z"/>
		</g>
	</g>
	<g>
		
			<rect x="304.51" y="207.66" transform="matrix(0.9845 -0.1752 0.1752 0.9845 -50.4907 58.44)" class="st7" width="2.29" height="214.89"/>
		
			<rect x="293.31" y="234.67" transform="matrix(0.9845 -0.1752 0.1752 0.9845 -39.6392 55.502)" class="st8" width="2.29" height="35.06"/>
		<polygon class="st9" points="301.31,176.56 261.37,183.67 261.86,249.24 327.4,231.87 		"/>
		<polygon class="st7" points="333.02,416.72 315.02,419.93 304.96,427 344.9,419.89 		"/>
		<g>
			<path class="st10" d="M327.4,231.87l-17.77-37.68c2.71,17.78,0.75,33.93-4.56,43.6L327.4,231.87z"/>
			<path class="st10" d="M261.52,203.71l0.34,45.53l20.78-5.51C273.67,237.29,265.47,222.31,261.52,203.71z"/>
		</g>
	</g>
	<g>
		<g>
			<path class="st11" d="M783.65,410.62c-32.3-18.86-50.26-23.46-59.22,17.04c-3.5,15.82-22.61,35.08-22.61,35.08
				s21.69,24.72,41.07,8.29c19.38-16.43,9-44.59,21.38-52.5C776.65,410.62,783.65,410.62,783.65,410.62z"/>
			<path class="st12" d="M762.76,408.44c0-4.84,3.53-8.67,7.88-8.58c4.35,0.1,7.88,4.1,7.88,8.93c0,4.84-3.53,8.68-7.88,8.58
				C766.29,417.27,762.76,413.27,762.76,408.44z"/>
			<path class="st13" d="M913.58,506.86h-214.8c0,0,63.18-101.13,72.68-101.75C842.54,400.48,913.58,506.86,913.58,506.86z"/>
			<path class="st14" d="M768.55,412.12c-16.01,27.58,4.76,69.61,46.43,94.74h-116.2c0,0,63.18-101.13,72.68-101.75
				c0.8-0.05,1.59-0.07,2.39-0.1C771.83,407.17,770.05,409.53,768.55,412.12z"/>
			<g class="st15">
				<path class="st6" d="M814.19,482.09l-2.81-6.93c-10.28-0.6-17.53-5.24-19.67-10.51c-2.4-5.93,1.15-9.66,9.84-12.99
					c7.33-2.85,10.15-4.77,8.75-8.24c-1.08-2.66-5.09-5.58-12.44-5.18c-6.11,0.33-9.42,2.01-11.1,2.92l-4.17-4.27
					c2.31-1.28,5.79-2.56,11.46-3.01l-2.62-6.46l5.91-0.32l2.73,6.72c9.18,0.52,16.52,4.42,18.75,9.94
					c2.35,5.79-2.42,9.19-11.06,12.38c-6.25,2.38-9.05,4.85-7.57,8.51c1.54,3.8,7.23,6.28,14,5.91c5.34-0.29,9.79-1.83,12.57-3.61
					l4.1,4.34c-2.66,1.85-7.9,3.36-13.41,3.73l2.73,6.73L814.19,482.09z"/>
			</g>
			<path class="st14" d="M778.72,407.27c-12.79,18.38,2.59,55.4,11.84,64.87c0,0-18.13-11.42-22.58-38.7
				C765.19,416.34,778.72,407.27,778.72,407.27z"/>
		</g>
		<path class="st16" d="M795.92,506.86h26.74c0,0-19.64-5.68-23.89-8.98C795.16,495.08,795.92,506.86,795.92,506.86z"/>
	</g>
	<g>
		<path class="st17" d="M482.64,281.53c-22.61-5.3-41.95-19.79-58.61-16.13c-9.27,2.04-14.9,7.2-18.17,14.34
			c-3.05,6.65-4.06,15.02-4.06,24.18h86.67L482.64,281.53z"/>
		<path class="st18" d="M482.64,284.33c-22.61-4.64-41.95-17.31-58.61-14.11c-9.27,1.78-14.9,6.3-18.17,12.54
			c-3.05,5.82-4.06,13.14-4.06,21.15h86.67L482.64,284.33z"/>
		<path class="st17" d="M452.81,302.15c0-3.47-3.96-5.98-8.2-5.55l-5.15,0.52c-1.42-11.69-9.98-24.08-19.23-24.08
			c-10.13,0-18.34,10.15-18.34,22.67c0,2.26,0.28,4.43,0.77,6.49h36.94c0-0.01,0-0.03,0-0.04H452.81z"/>
		<path class="st19" d="M636.31,300.02H407.01c-13.38,0-25.16,8.83-28.91,21.67l-16.53,56.5l22.33,64.87h267.46l33.14-80.11
			l-20.83-45.37C658.77,306.87,648.08,300.02,636.31,300.02z"/>
		<path class="st20" d="M402.96,300.02c13.29,3.42,32.71,5.58,54.37,5.58c21.66,0,41.08-2.16,54.37-5.58H402.96z"/>
		<path class="st20" d="M472.98,300.02c2.68,21.52,4.11,41.63,3.1,59.02l-55.83,17.55l34.83-77.1L472.98,300.02z"/>
		<path class="st20" d="M530.67,398.74c-71.64,0-132.97-16.35-161.55-46.34l-7.54,25.78l22.33,64.87h267.46l33.14-80.11l-1.42-10.28
			C664.96,345.03,595.19,398.74,530.67,398.74z"/>
		<path class="st19" d="M701.77,345.22L701.77,345.22c21.88,0,35.5,17.74,30.43,39.61l-28.3,122.03h-79.23l28.3-122.03
			C658.04,362.95,679.89,345.22,701.77,345.22z"/>
		<path class="st21" d="M551.58,365.42l5.98,36.29c1.02,5.07,18.48,12.05,23.01,9.25c48.11-29.72,68-57.72,153.65-73.9l0.01-2.67
			C734.23,334.39,596.71,331.96,551.58,365.42z"/>
		<path class="st22" d="M667.14,343.8c-47.35,7.01-84.75,19.05-86.27,8.78c-0.05-0.36-0.05-0.73-0.01-1.1
			c-11.62,3.76-21.75,8.35-29.29,13.94l5.98,36.29c1.02,5.07,18.48,12.05,23.01,9.25c48.11-29.72,68-57.72,153.65-73.9l0-1.2
			C718.52,338.31,694.13,339.8,667.14,343.8z"/>
		<path class="st21" d="M626.52,289.66c-16.76,0.78-81.14,60.69-81.14,60.69l-6.2,41.3l26.83,20.55
			c15.21-1.86,30.84-17.67,37.68-32.6c9.68-21.12,27.37-47.54,29.07-48.57c3.53-2.13,63.2,15.43,63.2,15.43l1.67-1.61
			C697.63,344.86,637.17,289.17,626.52,289.66z"/>
		<path class="st22" d="M624.25,313.31c0,0-34.03,46.79-47.86,48.21c-9.25,0.95-12.61-11.03-10.01-29.95
			c-12.07,10.47-21.01,18.78-21.01,18.78l-6.2,41.3l26.83,20.55c15.21-1.86,33.32-16.25,40.16-31.19
			c9.68-21.12,24.89-48.96,26.59-49.98c3.53-2.13,63.2,15.43,63.2,15.43l0.28-0.27L624.25,313.31z"/>
		<path class="st17" d="M430.26,328.73c-26.08,1.94-32.78-25.47-26.23-42.01l2.04,0.53c-1.8,4.05-4.44,24.72,7.45,29.97
			c11.9,5.26,20.94,0.02,23.58,4.91C439.55,326.66,434.09,328.45,430.26,328.73z"/>
		<path class="st23" d="M470.95,317.15c-3.63-9.2-26.8-7.32-29.86-2.99c-3.07,4.33-4.98,36.18-29.18,57.65l51.33-8.66
			C466.42,356.83,474.58,326.35,470.95,317.15z"/>
		<path class="st24" d="M449,352.14c-7.31-1.62-11.95-10.54-12.52-22.08c-3.53,12.18-12.68,29.72-27.23,42.63l55.12-8.33
			c1.93-3.83,4.55-17.76,6.4-29.23C465.43,346.7,456.84,353.88,449,352.14z"/>
		<path class="st23" d="M551.05,344.66c-1.12,26.7,7.12,45.27,29.86,66.08c-12.31,8.92-54.68,15.85-135.68,11.4
			c-25.39-1.39-48.21-10.63-43.75-31.02l-2.36-2.05l10.04-17l17.64-9.84C426.8,362.23,455.53,341.47,551.05,344.66z"/>
		<path class="st24" d="M572.07,401.93c-19.77,11.17-49.66,18.29-83.11,18.29c-36.22,0-68.24-8.35-87.79-21.15
			c2.34,14.88,22.25,21.88,44.06,23.08c81,4.45,123.36-2.48,135.68-11.4C577.66,407.77,574.74,404.84,572.07,401.93z"/>
		<path class="st24" d="M541.12,389.97c0-18.5,3.82-34.93,9.73-45.32c-20.19-0.65-55.74,2.19-70.26,3.22
			c-5.51,11.69-8.33,15.95-25.26,25.96c-26.36,15.6-43.97,24.03-49.85,10.8c-0.61-1.38-0.97-2.87-1.11-4.45l-5.25,8.89l2.36,2.05
			c-4.46,20.39,18.36,29.63,43.75,31.02c44.42,2.44,77.2,1.45,99.8-1.41C542.56,411.86,541.12,401.31,541.12,389.97z"/>
		<path class="st25" d="M401.63,383.32l-18.48-25.01l22.3-4.46l17.9,10.3C423.35,364.15,411.65,370.1,401.63,383.32z"/>
		<path class="st26" d="M372.12,335.38c-1.43,4.23,1.58,12.04,7.51,18.34c6.93,7.37,17.56,13.39,19.79,13.65
			c4.87,0.57,18.02-11.58,18.3-14.31c0.28-2.73-22.43-29.53-27.6-30.52C384.89,321.54,374.59,328.06,372.12,335.38z"/>
		<polygon class="st27" points="575.58,265.81 546.79,269.31 525.61,344.6 552.63,347.39 		"/>
		<polygon class="st28" points="570.34,268.53 548.56,271.21 529.11,341.23 549.33,341.23 		"/>
		<polygon class="st27" points="559.92,282.28 547.65,283.79 536.69,323.23 548.08,323.23 		"/>
		<polygon class="st27" points="552.71,340.72 476.43,345.39 476.43,348.47 552.71,347.1 		"/>
		<path class="st23" d="M422.72,370.74c32.53,4.61,38.73,10.66,48.57,6.03c9.84-4.63,34.66,28.21,22.78,34.28
			c-11.88,6.07-58.14,8.86-80.21,1.79c-11.14-3.57-16.95-16.85-14.54-26.94C401.69,376,412.07,369.23,422.72,370.74z"/>
		<path class="st24" d="M471.29,376.77c-1.91,0.9,6.58,25.46,3.54,26.76c-19.32,8.33-70.91-13.01-74.46-20.69
			c-0.43,0.98-0.79,2-1.04,3.05c-2.41,10.1,3.4,23.38,14.54,26.94c22.06,7.06,68.33,4.27,80.21-1.79
			C505.95,404.98,481.13,372.14,471.29,376.77z"/>
		<path class="st26" d="M502.92,333.8c0,0-19.05,33.57-34.47,43.85c-3.28,2.19,5.95,37.37,25.17,32.7
			c20.36-4.94,23.78-74.93,23.78-74.93L502.92,333.8z"/>
		<path class="st29" d="M510.94,353.33c-6.75,20.45-16.53,34.37-26.54,33.36c-5.2-0.52-10.17-4.72-13.13-11.14
			c-0.95,0.78-1.89,1.48-2.82,2.1c-3.28,2.19,5.95,37.37,25.17,32.7c15.76-3.83,21.37-46.63,23.1-65.78
			C517.23,338.99,513.1,346.79,510.94,353.33z"/>
		<path class="st17" d="M481.2,300.86c-10.31-6.15-7.61-23.58-7.61-23.58s13.03-0.75,20.03,3.75c7.01,4.5,7.94,18.87,7.94,18.87
			S488.24,305.06,481.2,300.86z"/>
		<path class="st17" d="M487.32,267.33c0,0-5.89,3.95-7.44,11.84l10.07,0.63C490.57,275.55,487.32,267.33,487.32,267.33z"/>
		<path class="st30" d="M486.7,269.79c0,0-3.9,2.61-4.92,7.84l6.67,0.41C488.85,275.24,486.7,269.79,486.7,269.79z"/>
		<path class="st17" d="M507.89,282.92c0,0-1.69,6.88-8.57,11.05l-4.04-9.24C499.05,282.68,507.89,282.92,507.89,282.92z"/>
		<path class="st30" d="M505.85,284.46c0,0-1.09,4.45-5.54,7.14l-2.62-5.98C500.13,284.3,505.85,284.46,505.85,284.46z"/>
		<path class="st31" d="M393.35,372.55c-22.43-8.18-37.6-25.91-32.93-36.24c6.25-13.83,19.57-17.56,27.92-17.75l0.07,3.92
			c0,0-14.71,2.11-10.97,15.16c2.16,7.52,12.1,14.09,12.1,14.09l-2.59,6.91L393.35,372.55z"/>
		
			<ellipse transform="matrix(0.2047 -0.9788 0.9788 0.2047 -42.519 659.5112)" class="st26" cx="384.57" cy="355.92" rx="4.34" ry="7.18"/>
		
			<ellipse transform="matrix(0.134 -0.991 0.991 0.134 -18.8124 690.3205)" class="st25" cx="385.55" cy="355.92" rx="2.6" ry="4.3"/>
		<path class="st26" d="M390.42,356.74c0.12-0.92-1-1.82-2.52-2.03c-1.52-0.2-2.84,0.37-2.97,1.29c-0.12,0.92,1,1.82,2.52,2.03
			C388.97,358.23,390.3,357.65,390.42,356.74z"/>
		<path class="st26" d="M475.9,279.67c2.08-3.61-10.12-12.98-15.43-9.61c-5.32,3.37-19.37,31.76-20.73,47.69
			c-0.75,8.7,31.17,9.52,31.92,2.86C472.41,313.72,473.14,284.46,475.9,279.67z"/>
		<g>
			<path class="st29" d="M456.13,318.1c-6.83-1.51-15.29-3.19-7.85-28.17c-4.21,9.34-7.89,20.05-8.55,27.81
				c-0.75,8.7,31.17,9.52,31.92,2.86c0.42-3.77,0.83-14.25,1.56-23.74C471.94,317.04,462.78,319.57,456.13,318.1z"/>
		</g>
		<path class="st19" d="M636.45,417h-225.7c-3.57,0-6.46,2.89-6.46,6.46v83.4H642.9v-83.4C642.9,419.89,640.01,417,636.45,417z"/>
		<path class="st19" d="M349.34,345.22L349.34,345.22c-21.88,0-35.5,17.74-30.43,39.61l28.3,122.03h79.23l-28.3-122.03
			C393.07,362.95,371.22,345.22,349.34,345.22z"/>
		<path class="st27" d="M694.79,347.87h7.27l10.46-12.23c0,0-11.75,5.57-16.35,7.38C691.57,344.82,694.79,347.87,694.79,347.87z"/>
		<path class="st27" d="M735.16,340.56l8.64-17.68c0,0-13.03,9.7-13.69,13.16C729.45,339.5,735.16,340.56,735.16,340.56z"/>
		<path class="st27" d="M465.62,377.65c-0.71,18.26,10.1,39.35,16.66,39.35c6.56,0,17.37-3.19,17.15-10.14
			c0,0-9.71,0.04-29.03-30.09C469,374.58,465.66,376.49,465.62,377.65z"/>
		<path class="st27" d="M437.29,327.18c-3.62-3.63-1.03-11.07,2.66-11.34c3.69-0.27,21.24,6.37,31.82,3.45
			c1.91-0.53,1.62,6.44-0.11,8.9C467.43,334.18,442.24,332.14,437.29,327.18z"/>
		<path class="st32" d="M483.54,294.04c1.61,1.7,4.03-1.28,4.03-1.28s-1.82,2.84,0.28,4.5c2.1,1.66,5.92-1.19,0.65-5.32
			C483.86,288.31,479.48,289.77,483.54,294.04z"/>
		<path class="st30" d="M486.94,294.01c-1.51-0.95-1-2.98-0.14-3.31c0.87-0.33,3.25,1.62,3.05,2.26
			C489.66,293.61,487.92,294.63,486.94,294.01z"/>
		<path class="st30" d="M484.76,285.59c0.68,0.54,0.91,1.37,0.6,1.97c0.05-0.04,0.11-0.06,0.15-0.12c0.46-0.6,0.22-1.55-0.52-2.14
			c-0.75-0.59-1.72-0.58-2.18,0.02c-0.04,0.05-0.05,0.12-0.07,0.17C483.23,285.04,484.08,285.06,484.76,285.59z"/>
		<path class="st30" d="M494.51,294.06c0.68,0.54,0.91,1.37,0.6,1.97c0.05-0.04,0.11-0.06,0.15-0.12c0.46-0.6,0.22-1.55-0.52-2.14
			c-0.75-0.59-1.72-0.58-2.18,0.02c-0.04,0.05-0.05,0.12-0.07,0.17C492.97,293.51,493.83,293.52,494.51,294.06z"/>
		<rect x="425.03" y="496.94" class="st20" width="196.74" height="9.93"/>
		<polygon class="st20" points="420.77,506.86 436.19,506.86 409.08,435.61 		"/>
		<polygon class="st20" points="628.33,506.86 612.91,506.86 640.03,435.61 		"/>
		<path class="st20" d="M350.76,364.64c15.58,0,31.14,10.27,38.81,24.41c-4.57-17.08-21.74-30.74-38.96-30.74h0
			c-14.16,0-24.01,9.24-25.21,22.01C329.4,370.88,338.62,364.64,350.76,364.64z"/>
		<path class="st20" d="M699.37,364.64c-15.58,0-31.14,10.27-38.81,24.41c4.57-17.08,21.74-30.74,38.96-30.74h0
			c14.16,0,24.01,9.24,25.21,22.01C720.72,370.88,711.5,364.64,699.37,364.64z"/>
		<path class="st33" d="M487.22,398.68c-2.43,5.15-5.88,8.4-9.73,8.4c-2.34,0-4.53-1.2-6.44-3.29c3.46,7.76,7.89,13.22,11.23,13.22
			c6.56,0,17.37-3.19,17.15-10.14C499.43,406.86,495.35,406.86,487.22,398.68z"/>
		<g>
			<path class="st9" d="M348.1,247.82c0.11,0,0.11-0.17,0-0.17C347.99,247.64,347.99,247.82,348.1,247.82L348.1,247.82z"/>
		</g>
		<path class="st26" d="M474.21,284.4c3.59-1.66,3.12-5.18,11.7-6.11c1.47-0.16,1.93-3.46,0.33-3.79
			c-1.6-0.33-11.37-0.33-13.43-0.33C470.76,274.16,470.33,286.2,474.21,284.4z"/>
		<path class="st26" d="M469.36,272.77c2.79-3.32,7.92-1.53,7.59,1.65C476.62,277.59,466.9,275.69,469.36,272.77z"/>
		<path class="st26" d="M464.97,271.17c2.79-3.32,7.92-1.53,7.59,1.65C472.23,276,462.51,274.1,464.97,271.17z"/>
		<path class="st26" d="M516.3,330.08c-12.37-2.15-14.77,1.98-16.92,10.65l15.98-0.26c0,0,5.5-1.63,9.28-1.8
			C528.41,338.5,528.67,332.22,516.3,330.08z"/>
		<path class="st26" d="M522.32,335.92c0.77,4.64,0.6,6.7,2.23,6.96c1.63,0.26,3.44-0.17,3.52-1.12c0.09-0.94-0.47-6.65-1.87-7.15
			C524.81,334.11,522.32,335.92,522.32,335.92z"/>
		<path class="st26" d="M516.39,335.57c0.77,4.64,0.6,6.7,2.23,6.96c1.63,0.26,3.44-0.17,3.52-1.12c0.09-0.94-0.47-6.65-1.87-7.15
			C518.88,333.77,516.39,335.57,516.39,335.57z"/>
		<g>
			<path class="st34" d="M395.58,336.38c-0.92-1.22-2.25-1.7-2.96-1.09c-0.71,0.62-0.54,2.1,0.38,3.32c0.92,1.22,2.25,1.7,2.96,1.09
				C396.67,339.08,396.5,337.6,395.58,336.38z"/>
			<path class="st31" d="M389.88,330.3l-4.65,4.05c-0.39,0.34-0.43,0.91-0.09,1.28l1.28,1.39c0.34,0.37,0.93,0.39,1.32,0.05
				l4.65-4.05c0.39-0.34,0.43-0.91,0.09-1.28l-1.28-1.39C390.87,329.98,390.27,329.95,389.88,330.3z"/>
			<path class="st34" d="M400.55,332.38c-0.71-0.95-1.57-1.39-1.93-0.99c-0.36,0.41-0.07,1.51,0.64,2.46
				c0.71,0.95,1.57,1.39,1.92,0.99C401.55,334.43,401.26,333.33,400.55,332.38z"/>
			<path class="st31" d="M395.65,325.19l-2.15,1.85c-0.18,0.16-0.07,0.59,0.25,0.98l1.21,1.45c0.32,0.38,0.73,0.57,0.91,0.41
				l2.15-1.85c0.18-0.16,0.07-0.59-0.25-0.98l-1.21-1.45C396.23,325.22,395.83,325.04,395.65,325.19z"/>
			<path class="st25" d="M398.26,335.95c5.45,0.73,8.71,1.65,9.22,3.46c0.32,1.13-0.44,2.22-1.21,2.99l0.08,0.06
				c0,0,3.13-2.05,2.76-3.94C408.74,336.65,404.83,336.15,398.26,335.95z"/>
			<path class="st35" d="M409.21,343.95l-7.11,5.2c0,0,1.94,5.39,6.81,2.51C412.59,349.48,409.21,343.95,409.21,343.95z"/>
			<path class="st36" d="M409.84,346.84c-0.31-1.23-0.88-2.22-0.88-2.22l-5.7,4.31c0,0,0.54,1.3,1.84,2.04L409.84,346.84z"/>
		</g>
	</g>
	<g>
		<path class="st37" d="M261.42,299.88l-36.4,0.01c0.3,5.54-1.99,10.79-5.55,15.62l40.41-1.58L261.42,299.88z"/>
		<path class="st38" d="M379.63,439.57c-1.57-0.79,0.49-1.86,4.22-0.85c38.35,10.41,39.7,29.73,39.7,29.73s-13.76,13.36-28.74,6.53
			C394.81,474.98,390.36,444.97,379.63,439.57z"/>
		<path class="st39" d="M177.07,335.53l0.83-13.55c-14.91,0.66-28.06,8.39-28.06,8.39l-0.44,14.97
			C149.4,345.34,167.55,335.28,177.07,335.53z"/>
		<path class="st39" d="M186.18,288.04l-11.85,6.62c8.62,12.19,22.22,19.08,22.22,19.08l12.84-7.72
			C209.39,306.01,191.12,296.19,186.18,288.04z"/>
		<polygon class="st37" points="274.67,302.71 227.95,305.27 198.83,343.03 274.67,343.03 		"/>
		<path class="st40" d="M281.99,298.91l-31.4,1.16c1.26,4.78,1.03,9.31,0.32,14.12l33.64,2.84L281.99,298.91z"/>
		<path class="st40" d="M277.51,312.75l-31.8,0.9c1.26,4.78,1.44,9.57,0.72,14.38l33.64,2.84L277.51,312.75z"/>
		<path class="st40" d="M277.79,327.15l-42,0.84c0.77,4.45,0.11,8.89-1.72,13.36l43.72,2.64V327.15z"/>
		<path class="st37" d="M221.39,326.71h-24.32c1.25,4.64,1.31,9.38,0,14.24h24.32V326.71z"/>
		<path class="st37" d="M234.99,314.07l-20.96-1.44c0.42,4.86-0.9,10.13-3.36,15.68h24.32V314.07z"/>
		<g>
			<path class="st40" d="M211.43,340.95c1.05-4.61,1.08-9.3-0.13-14.17l-0.47,0.01c0.77,4.66,0.11,9.33-1.72,14.01L211.43,340.95z"
				/>
		</g>
		<polygon class="st41" points="230.61,328.95 225.13,328.45 223.31,341.59 229.43,341.59 		"/>
		<polygon class="st41" points="227.71,313.71 222.25,313.17 220.03,327.51 226.15,327.51 		"/>
		<polygon class="st41" points="242.15,299.89 235.71,299.89 234.51,313.27 240.63,313.27 		"/>
		<polygon class="st40" points="227.52,327.71 211.03,326.88 227.75,328.93 252.35,328.98 253.63,326.95 		"/>
		<polygon class="st40" points="236.51,313.27 221.11,313.12 236.73,314.48 258.83,314.39 260.91,311.43 		"/>
		<g>
			<path class="st40" d="M235.85,328.29c1.32-4.88,1.64-9.85,0.71-15.01l-0.47,0.01c0.5,4.94-0.44,9.88-2.55,14.84L235.85,328.29z"
				/>
		</g>
		<path class="st42" d="M466.98,506.86H259.95c13.27-24.64,111.07-73.56,121.76-67.84C393.37,445.28,466.98,506.86,466.98,506.86z"
			/>
		<path class="st38" d="M379.98,438.6c-16.74-1.38-107.3,44.62-120.03,68.26h96.26C339.45,472.24,350,443.81,379.98,438.6z"/>
		<rect x="220.43" y="488.62" class="st43" width="110.08" height="11.04"/>
		<polygon class="st43" points="281.35,481.26 265.99,481.26 273.91,506.86 282.55,506.86 		"/>
		<polygon class="st44" points="339.67,481.26 324.31,481.26 332.23,506.86 340.87,506.86 		"/>
		<polygon class="st43" points="333.91,481.26 318.55,481.26 326.47,506.86 335.11,506.86 		"/>
		<polygon class="st44" points="257.21,481.26 241.85,481.26 248.57,506.86 257.21,506.86 		"/>
		<polygon class="st43" points="251.93,481.26 236.57,481.26 243.29,506.86 251.93,506.86 		"/>
		<rect x="182.83" y="340.47" class="st43" width="74.4" height="156.47"/>
		<polygon class="st44" points="333.07,340.47 251.95,340.47 251.95,496.94 340.27,496.94 		"/>
		<polygon class="st45" points="253.17,474.11 335.6,421.84 332.77,360.23 253.17,410.7 		"/>
		<g>
			<path class="st43" d="M331.47,488.81h-70.67V348.6h64.99L331.47,488.81z M262.71,486.89h67.56l-5.52-136.37h-62.03V486.89z"/>
		</g>
		<path class="st38" d="M236.22,506.86H107.64c0,0,42.86-75.41,66.08-81.74C196.93,418.8,236.22,506.86,236.22,506.86z"/>
		<path class="st42" d="M234.14,502.35c-16.77-33.49-43.69-58.47-60.48-55.96c-16.01,2.39-17.07,28.91-3.08,60.47h65.64
			C236.22,506.86,235.48,505.2,234.14,502.35z"/>
		<path class="st46" d="M182.35,425.79c0-1.48-1.79-2.68-4-2.68c-2.21,0-4,1.2-4,2.68c0,1.48,1.79,2.68,4,2.68
			C180.56,428.47,182.35,427.27,182.35,425.79z"/>
		<g class="st5">
			<path class="st6" d="M407.32,486.08l-4.47-4.13c-2.96,1.27-6.88,1.92-9.86,1.69l-1.56-3.33c2.94,0.18,6.44-0.19,9.25-1.38
				c3.42-1.45,3.94-3.9,1.62-5.97c-2.2-1.96-5.37-2.49-10.15-2.27c-6.81,0.35-12.01-0.21-15.31-3.41c-3.05-2.96-2.08-6.01,2.22-7.79
				l-3.48-3.22l3.12-0.75l3.33,3.02c2.98-0.7,5.47-0.72,7.4-0.56l1.18,2.37c-1.41-0.1-4.14-0.25-7.26,0.62
				c-3.92,1.09-3.77,3.09-2.3,4.47c1.94,1.83,4.85,2.14,10.57,1.97c6.47-0.21,10.81,0.73,14.31,3.77c3.19,2.78,3.85,6.51-0.16,9.27
				l4.56,4.14L407.32,486.08z"/>
		</g>
		<g class="st5">
			<path class="st6" d="M161.9,493.99l-0.05-5.2c-3.76-0.56-7.65-2.01-9.93-3.6l1.52-3.24c2.34,1.55,5.72,2.98,9.35,3.47
				c4.6,0.62,7.69-1.07,7.66-4.01c-0.03-2.83-2.57-4.92-7.38-7.11c-6.62-2.95-10.73-5.87-10.77-10.35c-0.04-4.27,3.75-7,9.7-6.97
				l-0.05-5.2l4.01,0.54l0.05,4.99c3.89,0.63,6.55,1.81,8.44,2.94l-1.59,3.18c-1.36-0.8-4.03-2.29-8.17-2.85
				c-4.99-0.67-6.84,1.44-6.83,3.5c0.02,2.68,2.43,4.34,8.09,6.95c6.69,3.06,10.08,6.19,10.13,10.78c0.04,4.07-3.49,7.4-10.15,7.37
				l0.05,5.35L161.9,493.99z"/>
		</g>
		<path class="st42" d="M180.31,425.59c1.63-0.41,0-1.92-3.67-1.8c-37.77,1.29-43.72,19.71-43.72,19.71s9.37,16.11,24.8,12.93
			C157.71,456.44,169.13,428.37,180.31,425.59z"/>
		<path class="st41" d="M161.42,250.3l8.41,9.69c11.17-9.81,16.25-23.29,16.25-23.29l-9.66-10.41
			C176.41,226.29,169.01,244.49,161.42,250.3z"/>
		<path class="st41" d="M206.84,407.19l12.49-2.92c-3.46-14.45-13.02-25.24-13.02-25.24l-13.71,3.69
			C192.6,382.73,205.24,397.77,206.84,407.19z"/>
		<path class="st43" d="M311.86,429.76c-5.17-4.87-1.6-16.23,1.55-16.6C316.57,412.79,311.86,429.76,311.86,429.76z"/>
		<ellipse class="st47" cx="189.91" cy="301.43" rx="5.24" ry="2.8"/>
		<path class="st47" d="M160.45,337.28c1.39,0.67,3.54-0.91,4.79-3.52c1.25-2.61,1.13-5.27-0.26-5.94
			c-1.39-0.67-3.54,0.91-4.79,3.52C158.94,333.95,159.06,336.61,160.45,337.28z"/>
		<path class="st47" d="M177.09,247.04c0.73-1.36-0.3-3.6-2.29-4.99c-1.99-1.39-4.19-1.42-4.92-0.05c-0.73,1.36,0.3,3.6,2.29,4.99
			C174.16,248.39,176.36,248.41,177.09,247.04z"/>
		<path class="st47" d="M211.82,391.37c-1.08-1.71-3.87-2.49-6.24-1.75c-2.37,0.75-3.41,2.74-2.33,4.45
			c1.08,1.71,3.87,2.49,6.24,1.75C211.85,395.08,212.9,393.09,211.82,391.37z"/>
	</g>
	<g>
		<polygon class="st48" points="690.59,460.03 752.9,473.49 808.61,506.86 649.59,506.86 		"/>
		<path class="st48" d="M760.11,369.79c0,0,10.35-14.25,3.14-30.64l11.68-3.86c9.7,22.5-1.32,39.86-1.32,39.86L760.11,369.79z"/>
		<path class="st48" d="M607.11,262.33c0,0,14.7-9.7,13.71-27.59l12.29,0.5c1.17,24.47-15.26,36.85-15.26,36.85L607.11,262.33z"/>
		<path class="st48" d="M653.65,392.96c0,0,5,16.89,22.4,21.15L672,425.72c-23.75-6.01-30.82-25.32-30.82-25.32L653.65,392.96z"/>
		<path class="st48" d="M681.39,452.32c0,0,13.4,8.77,27.02-0.16l4.45,11.2c-18.71,12.05-34.89,2.95-34.89,2.95L681.39,452.32z"/>
		<path class="st48" d="M750.51,467.5c0,0-15.2-3.13-25.4,10.5l-7.49-8.84c14.08-18.51,31.99-16.14,31.99-16.14L750.51,467.5z"/>
		<path class="st49" d="M766.2,467.34c0,0,5.14,16.61,20.57,19.97l-3.03,11.8c-21.08-4.78-28.13-23.71-28.13-23.71L766.2,467.34z"/>
		<path class="st49" d="M730.62,475.2c0,0,9.41,13.97,24.99,11.7l0.33,12.29c-21.34,2.91-33.2-12.58-33.2-12.58L730.62,475.2z"/>
		<path class="st48" d="M782.6,473.74c0,0,1.72-17.53-12.8-28.03l8.13-9.23c19.75,14.51,19.03,35.06,19.03,35.06L782.6,473.74z"/>
		<path class="st48" d="M672.33,463.46c0,0,3.03,17.27,17.89,23.09l-4.46,11.2c-20.27-8.13-24.91-28.01-24.91-28.01L672.33,463.46z"
			/>
		<path class="st48" d="M694.41,246.9c0,0,7.63,15.88,25.48,17.32l-2.15,12.11c-24.4-2.15-34.45-20.1-34.45-20.1L694.41,246.9z"/>
		<path class="st49" d="M696.85,262.79c0.72-2.01,3.31-2.91,5.78-2.03c2.47,0.89,3.89,3.23,3.17,5.24
			c-0.72,2.01-3.31,2.91-5.78,2.03C697.55,267.14,696.13,264.8,696.85,262.79z"/>
		<path class="st48" d="M861.89,360.12c0,0,16.04,7.28,30.65-3.09l6.13,10.67c-20.09,14.02-39.32,6.72-39.32,6.72L861.89,360.12z"/>
		<path class="st49" d="M873.96,370.74c-0.74-2,0.66-4.36,3.13-5.26c2.46-0.91,5.06-0.02,5.8,1.98c0.74,2-0.66,4.36-3.13,5.26
			S874.7,372.74,873.96,370.74z"/>
		<path class="st49" d="M619.95,256.39c-1.63-1.37-1.59-4.11,0.1-6.12c1.69-2.01,4.38-2.54,6.01-1.17c1.63,1.37,1.59,4.11-0.1,6.12
			C624.27,257.23,621.58,257.75,619.95,256.39z"/>
		<path class="st49" d="M656.11,412.62c0.3-1.86,2.49-3.05,4.88-2.67c2.4,0.39,4.1,2.21,3.8,4.06c-0.3,1.86-2.49,3.05-4.88,2.67
			C657.52,416.3,655.81,414.48,656.11,412.62z"/>
		
			<ellipse transform="matrix(0.2143 -0.9768 0.9768 0.2143 259.7949 1031.9869)" class="st49" cx="771.35" cy="354.51" rx="4.4" ry="3.41"/>
		<path class="st49" d="M784.86,459.89c-1.87,0.29-3.68-1.42-4.05-3.82c-0.36-2.4,0.86-4.58,2.73-4.86s3.68,1.42,4.05,3.82
			C787.96,457.42,786.73,459.6,784.86,459.89z"/>
	</g>
	<g>
		<polygon class="st50" points="573.25,429.84 594.83,429.84 594.82,458.38 573.35,458.38 		"/>
		<path class="st51" d="M593.69,450.56c0.27,0.03,0.53,0.08,0.81,0.08c3.74,0,6.78-2.85,6.78-6.37c0-3.52-3.04-6.37-6.78-6.37
			c-0.28,0-0.54,0.05-0.81,0.08v-3.72c0.27-0.02,0.54-0.04,0.81-0.04c5.91,0,10.7,4.5,10.7,10.06c0,5.55-4.79,10.06-10.7,10.06
			c-0.27,0-0.54-0.02-0.81-0.04L593.69,450.56z"/>
		<path class="st51" d="M579.22,451.02c6.26,0,11.34-9.46,11.34-21.13c0-0.02,0-0.04,0-0.06h4.27l0,28.54h-21.48l-0.03-10.48
			C575.03,449.87,577.05,451.02,579.22,451.02z"/>
		<path class="st52" d="M584.69,422.7c0.26-12.27-15.5-10.34-11.43-17.92c4.07-7.58,27.25,1.93,25.48-5.72
			c-1.89-8.15-21.24-5.01-24.92-8.27c-3.15-2.79-3.37-10.5,4.43-12.61c18.72-5.06,11.43-18.88,11.43-18.88
			c18.81,20.02-6.94,21.74-8.37,23.94c-5.02,7.75,20.19,1.34,19.67,16.85c-0.3,8.96-19.31,3.12-21.84,6.92
			C576.88,410.44,588.11,411.78,584.69,422.7z"/>
	</g>
	<g>
		<polygon class="st7" points="687.16,464.74 682.29,464.74 682.29,506.86 685.11,506.86 		"/>
		<polygon class="st7" points="642.73,464.74 637.85,464.74 637.85,506.86 640.68,506.86 		"/>
		<polygon class="st7" points="515,464.74 510.13,464.74 510.13,506.86 512.95,506.86 		"/>
		<polygon class="st7" points="467.65,464.74 462.77,464.74 462.77,506.86 465.6,506.86 		"/>
		<rect x="447.76" y="457.71" class="st53" width="194.98" height="8.21"/>
		<rect x="637.61" y="457.71" class="st27" width="69.34" height="8.21"/>
	</g>
	<path class="st54" d="M959.56,506.9H40.44c0,0,233.48,15,474.08,15S959.56,506.9,959.56,506.9z"/>
</g>
</svg>
