<svg xmlns="http://www.w3.org/2000/svg" width="762.122" height="559.163" viewBox="0 0 762.122 559.163"><g transform="translate(-159.416 -258.668)"><path d="M-127.306-71.8C5.4-139.958,252.377-227.847,403.513-7.9c106.7,155.28-185.1,75.467-329.689,93.023S-63.811,289.483-127.306,264.747C-343.269,180.611-260.01-3.634-127.306-71.8Z" transform="translate(472.687 461.74) rotate(13)" fill="#ff8a05" opacity="0.25"/><g transform="translate(255.191 258.668)"><path d="M399.773,195.654h-2.686V122.066A42.591,42.591,0,0,0,354.5,79.476H198.59A42.591,42.591,0,0,0,156,122.066V525.775a42.59,42.59,0,0,0,42.59,42.59H354.5a42.591,42.591,0,0,0,42.591-42.591V248.035h2.686Z" transform="translate(-156 -79.476)" fill="#e6e6e6"/><path d="M362.1,96.107H341.751a15.111,15.111,0,0,1-13.991,20.818H238.445a15.111,15.111,0,0,1-13.991-20.818H205.446a31.806,31.806,0,0,0-31.806,31.806V531.029a31.806,31.806,0,0,0,31.806,31.806H362.1a31.806,31.806,0,0,0,31.806-31.806V127.914A31.806,31.806,0,0,0,362.1,96.107Z" transform="translate(-161.888 -85.027)" fill="#fff"/><path d="M264.365,219.111h-9.353a1.24,1.24,0,0,0-1.24,1.24v4.106a1.24,1.24,0,0,0,1.24,1.24h1.55v6.151h6.253V225.7h1.55a1.24,1.24,0,0,0,1.24-1.24v-4.105A1.24,1.24,0,0,0,264.365,219.111Z" transform="translate(-188.633 -126.081)" fill="#fbdebc"/><path d="M269.42,259.828a48.088,48.088,0,0,1-8.366-28.511,1.014,1.014,0,0,0-.792-1.012v-1.774h-9.878v1.749h-.136a1.014,1.014,0,0,0-1.012,1.015q0,.037,0,.074a43.886,43.886,0,0,1-7.884,29.186,2.793,2.793,0,0,0-.506,1.693l1.08,33.413a2.892,2.892,0,0,0,2.868,2.792h22.344a2.893,2.893,0,0,0,2.869-2.841l.416-32.441A5.855,5.855,0,0,0,269.42,259.828Z" transform="translate(-184.319 -129.225)" fill="#fbdebc"/><path d="M267.682,292.166H248.234a2,2,0,0,0-1.974,2.3l2.939,19.1h16.876l3.57-19.039a2,2,0,0,0-1.963-2.365Z" transform="translate(-186.118 -150.464)" fill="#fff"/><path d="M420.65,369.345H411.3a1.24,1.24,0,0,0-1.24,1.24v4.106a1.24,1.24,0,0,0,1.24,1.24h1.55v6.151H419.1v-6.151h1.55a1.24,1.24,0,0,0,1.24-1.24v-4.106a1.24,1.24,0,0,0-1.24-1.24Z" transform="translate(-240.795 -176.224)" fill="#fbdebc"/><path d="M425.7,410.063a48.088,48.088,0,0,1-8.366-28.511,1.014,1.014,0,0,0-.792-1.012v-1.774h-9.879v1.749h-.136a1.014,1.014,0,0,0-1.012,1.015q0,.037,0,.074a43.886,43.886,0,0,1-7.884,29.186,2.794,2.794,0,0,0-.506,1.693l1.08,33.413a2.892,2.892,0,0,0,2.868,2.792h22.344a2.894,2.894,0,0,0,2.869-2.841l.416-32.441A5.854,5.854,0,0,0,425.7,410.063Z" transform="translate(-236.481 -179.369)" fill="#fbdebc"/><path d="M423.966,442.4H404.518a2,2,0,0,0-1.974,2.3l2.939,19.1h16.876l3.57-19.039a2,2,0,0,0-1.963-2.365Z" transform="translate(-238.28 -200.607)" fill="#fff"/><path d="M247.418,581.733h-4.437a.588.588,0,0,0-.588.588v1.947a.588.588,0,0,0,.588.588h.735v2.918h2.966v-2.918h.735a.588.588,0,0,0,.588-.588v-1.947a.588.588,0,0,0-.588-.588Z" transform="translate(-184.835 -247.111)" fill="#fbdebc"/><path d="M249.815,601.047a22.81,22.81,0,0,1-3.968-13.524.481.481,0,0,0-.376-.48V586.2h-4.686v.83h-.065a.481.481,0,0,0-.48.481c0,.012,0,.023,0,.035a20.817,20.817,0,0,1-3.74,13.844,1.325,1.325,0,0,0-.24.8l.512,15.849a1.372,1.372,0,0,0,1.36,1.324h10.6a1.373,1.373,0,0,0,1.361-1.348l.2-15.388A2.777,2.777,0,0,0,249.815,601.047Z" transform="translate(-182.789 -248.603)" fill="#fbdebc"/><rect width="10.113" height="5.056" transform="translate(55.389 358.27)" fill="#fff"/><path d="M278.418,581.733h-4.437a.588.588,0,0,0-.588.588v1.947a.588.588,0,0,0,.588.588h.735v2.918h2.966v-2.918h.735a.588.588,0,0,0,.588-.588v-1.947a.588.588,0,0,0-.588-.588Z" transform="translate(-195.181 -247.111)" fill="#fbdebc"/><path d="M280.815,601.047a22.81,22.81,0,0,1-3.968-13.524.481.481,0,0,0-.375-.48V586.2h-4.686v.83h-.065a.481.481,0,0,0-.48.481c0,.012,0,.023,0,.035a20.817,20.817,0,0,1-3.74,13.844,1.325,1.325,0,0,0-.24.8l.512,15.849a1.372,1.372,0,0,0,1.36,1.324h10.6a1.373,1.373,0,0,0,1.361-1.348l.2-15.388A2.777,2.777,0,0,0,280.815,601.047Z" transform="translate(-193.135 -248.603)" fill="#fbdebc"/><rect width="10.113" height="5.056" transform="translate(76.042 358.27)" fill="#fff"/><path d="M309.418,581.733h-4.437a.588.588,0,0,0-.588.588v1.947a.588.588,0,0,0,.588.588h.735v2.918h2.966v-2.918h.735a.588.588,0,0,0,.588-.588v-1.947a.588.588,0,0,0-.588-.588Z" transform="translate(-205.528 -247.111)" fill="#fbdebc"/><path d="M311.815,601.047a22.81,22.81,0,0,1-3.968-13.524.481.481,0,0,0-.375-.48V586.2h-4.686v.83h-.065a.481.481,0,0,0-.48.481c0,.012,0,.023,0,.035a20.818,20.818,0,0,1-3.74,13.844,1.325,1.325,0,0,0-.24.8l.512,15.849a1.372,1.372,0,0,0,1.36,1.324h10.6a1.373,1.373,0,0,0,1.361-1.348l.2-15.388A2.777,2.777,0,0,0,311.815,601.047Z" transform="translate(-203.482 -248.603)" fill="#fbdebc"/><rect width="10.113" height="5.056" transform="translate(96.695 358.27)" fill="#fff"/><path d="M396.26,523.613h-9.353a1.24,1.24,0,0,0-1.24,1.24v4.106a1.24,1.24,0,0,0,1.24,1.24h1.55v6.151h6.253V530.2h1.55a1.24,1.24,0,0,0,1.24-1.24v-4.106A1.24,1.24,0,0,0,396.26,523.613Z" transform="translate(-232.655 -227.713)" fill="#fbdebc"/><path d="M401.315,564.331a48.088,48.088,0,0,1-8.366-28.511,1.014,1.014,0,0,0-.792-1.012v-1.774H382.28v1.749h-.136a1.014,1.014,0,0,0-1.012,1.015q0,.037,0,.074a43.885,43.885,0,0,1-7.884,29.186,2.794,2.794,0,0,0-.506,1.693l1.08,33.413a2.892,2.892,0,0,0,2.868,2.792h22.344a2.894,2.894,0,0,0,2.869-2.841l.416-32.441A5.855,5.855,0,0,0,401.315,564.331Z" transform="translate(-228.341 -230.858)" fill="#fbdebc"/><path d="M399.577,596.668H380.129a2,2,0,0,0-1.974,2.3l2.939,19.1H397.97l3.57-19.039a2,2,0,0,0-1.963-2.365Z" transform="translate(-230.14 -252.096)" fill="#fff"/><path d="M381.3,302.92H325.544c3.9-21.075,3-46.524,0-73.893H381.3C378.378,256.4,377.505,281.845,381.3,302.92Z" transform="translate(-212.588 -129.391)" fill="#fbdebc"/><circle cx="13.435" cy="13.435" r="13.435" transform="translate(127.735 121.132)" fill="#fff"/><path d="M304.67,450.13H248.914c3.9-21.075,3-46.524,0-73.893H304.67C301.749,403.605,300.876,429.055,304.67,450.13Z" transform="translate(-187.011 -178.524)" fill="#fbdebc"/><circle cx="13.435" cy="13.435" r="13.435" transform="translate(76.681 219.209)" fill="#fff"/><path d="M428.689,309.978H372.933c3.9-21.075,3-46.524,0-73.893h55.756C425.768,263.454,424.895,288.9,428.689,309.978Z" transform="translate(-228.404 -131.746)" fill="#e6e6e6"/><circle cx="13.435" cy="13.435" r="13.435" transform="translate(159.307 125.835)" fill="#fff"/><path d="M428.689,304.937H372.933c3.9-21.075,3-46.524,0-73.893h55.756C425.768,258.412,424.895,283.862,428.689,304.937Z" transform="translate(-228.404 -130.064)" fill="#fbdebc"/><circle cx="13.435" cy="13.435" r="13.435" transform="translate(159.307 122.476)" fill="#fff"/><path d="M428.689,309.978H372.933c3.9-21.075,3-46.524,0-73.893h55.756C425.768,263.454,424.895,288.9,428.689,309.978Z" transform="translate(-228.404 -131.746)" fill="#fbdebc"/><circle cx="13.435" cy="13.435" r="13.435" transform="translate(159.307 125.835)" fill="#fff"/><rect width="182.718" height="20.153" transform="translate(30.33 169.499)" fill="#fbdebc"/><rect width="182.718" height="20.153" transform="translate(30.33 269.59)" fill="#fbdebc"/><rect width="182.718" height="20.153" transform="translate(30.33 369.682)" fill="#fbdebc"/><path d="M930.051,710.723l-45.521-32.2c15.352-14.956,29.316-36.251,42.67-60.328l45.521,32.2C954.531,671.052,939.122,691.326,930.051,710.723Z" transform="translate(-399.157 -259.282)" fill="#ff8a05"/><circle cx="13.435" cy="13.435" r="13.435" transform="translate(517.47 390.292)" fill="#fff"/><path d="M620.427,536.554h-5a.663.663,0,0,0-.662.662v2.193a.662.662,0,0,0,.662.662h.828v3.286H619.6v-3.286h.828a.662.662,0,0,0,.662-.662v-2.193a.662.662,0,0,0-.662-.663Z" transform="translate(-309.12 -232.032)" fill="#e6e6e6"/><path d="M623.127,558.306a25.689,25.689,0,0,1-4.469-15.231.542.542,0,0,0-.423-.541v-.948h-5.277v.935h-.073a.541.541,0,0,0-.541.542c0,.013,0,.026,0,.039a23.444,23.444,0,0,1-4.212,15.592,1.493,1.493,0,0,0-.27.9l.577,17.849a1.545,1.545,0,0,0,1.532,1.491H621.91a1.546,1.546,0,0,0,1.533-1.518l.222-17.33A3.129,3.129,0,0,0,623.127,558.306Z" transform="translate(-306.816 -233.712)" fill="#ff8a05"/><path d="M620.267,537.627a1.429,1.429,0,0,1-2.859,0" transform="translate(-310.002 -232.39)" opacity="0.2"/><rect width="10.076" height="6.718" transform="translate(303.911 328.033)" fill="#fff"/><path d="M855.3,641.218h-9.353a1.24,1.24,0,0,0-1.24,1.24v4.106a1.24,1.24,0,0,0,1.24,1.24h1.55v6.151h6.253V647.8h1.55a1.24,1.24,0,0,0,1.24-1.24v-4.106a1.24,1.24,0,0,0-1.24-1.24Z" transform="translate(-385.864 -266.965)" fill="#e6e6e6"/><path d="M860.35,681.936a48.088,48.088,0,0,1-8.366-28.511,1.014,1.014,0,0,0-.792-1.012V650.64h-9.878v1.749h-.136a1.014,1.014,0,0,0-1.012,1.015c0,.025,0,.049,0,.074a43.885,43.885,0,0,1-7.884,29.186,2.794,2.794,0,0,0-.505,1.693l1.08,33.413a2.893,2.893,0,0,0,2.868,2.792h22.344a2.893,2.893,0,0,0,2.869-2.841l.416-32.441A5.855,5.855,0,0,0,860.35,681.936Z" transform="translate(-381.551 -270.11)" fill="#ff8a05"/><path d="M855,643.226a2.675,2.675,0,1,1-5.351,0" transform="translate(-387.514 -267.635)" opacity="0.2"/><path d="M858.612,714.273H839.164a2,2,0,0,0-1.974,2.3l2.939,19.1h16.876l3.57-19.039a2,2,0,0,0-1.963-2.365Z" transform="translate(-383.349 -291.348)" fill="#fff"/><path d="M792.614,719.978H736.858c3.9-21.075,3-46.524,0-73.893h55.756C789.693,673.453,788.82,698.9,792.614,719.978Z" transform="translate(-349.87 -268.59)" fill="#ff8a05"/><circle cx="13.435" cy="13.435" r="13.435" transform="translate(401.767 398.991)" fill="#fff"/><path d="M322.243,314.215l12.517-1.138,7.965-19.344L328.5,285.768Z" transform="translate(-107.553 -95.379)" fill="#ffb8b8"/><path d="M636.419,482.224h0a7.058,7.058,0,0,0-6.131-9.672l-19.434-1.159-2.862,9.515L628,486.4A7.058,7.058,0,0,0,636.419,482.224Z" transform="translate(-306.859 -210.284)" fill="#ffb8b8"/><path d="M571.383,460.791l-.214-17.855L528,436.048l-33.255-38.141a10.885,10.885,0,0,0-14.187-1.94h0a10.885,10.885,0,0,0-1.9,16.6L506.1,446.335Z" transform="translate(-262.69 -184.511)" fill="#ff8a05"/><path d="M463.726,699.305H475.1L503.328,571.7l29.239,39.42,17.068,85.341h10.81l-2.276-91.6L520.051,507H482.5c-10.261,18.571-18.311,37.714-9.1,57.463Z" transform="translate(-258.708 -222.169)" fill="#2f2e41"/><path d="M582.136,800.687a2.97,2.97,0,0,0,2.316,3.81l27.844,4.941a4.581,4.581,0,0,0,5.2-3.14h0a4.553,4.553,0,0,0-2.227-5.414,42.575,42.575,0,0,1-15.356-13.35c-3.06,2.85-6.481,2.582-10.113.482l-3.853.482Z" transform="translate(-298.184 -315.8)" fill="#2f2e41"/><path d="M455.75,800.687a2.97,2.97,0,0,0,2.316,3.81l27.844,4.941a4.581,4.581,0,0,0,5.2-3.14h0a4.553,4.553,0,0,0-2.227-5.414,42.574,42.574,0,0,1-15.356-13.35c-3.06,2.85-6.481,2.582-10.113.482l-3.853.482Z" transform="translate(-256.001 -315.8)" fill="#2f2e41"/><circle cx="15.93" cy="15.93" r="15.93" transform="translate(219.526 173.605)" fill="#ffb8b8"/><path d="M481.687,471.936,523.22,470.8l-12.2-38.388c7.58-12.152-.049-24.291-10.845-36.428l-8.534-5.689-13.655-1.138h0a33.521,33.521,0,0,0-9.027,23.352A150.431,150.431,0,0,0,481.687,471.936Z" transform="translate(-260.454 -182.836)" fill="#ff8a05"/><path d="M618.458,542.165h0a7.058,7.058,0,0,0-1.832-11.3l-17.411-8.711-6.374,7.622L609.074,542.7A7.058,7.058,0,0,0,618.458,542.165Z" transform="translate(-301.802 -227.225)" fill="#ffb8b8"/><path d="M566.387,498.016l6.827-16.5L536.237,458.2l-15.57-48.148a10.885,10.885,0,0,0-12.28-7.365h0a10.885,10.885,0,0,0-8.275,14.519l11.941,41.834Z" transform="translate(-270.623 -187.296)" fill="#ff8a05"/><path d="M470.13,345.061c0,6.2,4.026,15.8,9.1,19.913,3.416,2.769,7.931,2.652,9.672-1.138,1.786-3.888,7.941-13.026,18.775-18.775,14.442-7.663-5.122-20.774-18.775-18.775C478.645,327.788,470.13,334.691,470.13,345.061Z" transform="translate(-260.845 -161.784)" fill="#2f2e41"/><circle cx="11.379" cy="11.379" r="11.379" transform="translate(207.578 151.985)" fill="#2f2e41"/><path d="M499.016,313a11.372,11.372,0,0,0-10.525-11.336c.283-.021.565-.043.853-.043a11.379,11.379,0,1,1,0,22.758c-.288,0-.571-.022-.853-.043A11.372,11.372,0,0,0,499.016,313Z" transform="translate(-266.973 -153.621)" fill="#2f2e41"/><ellipse cx="2.56" cy="3.414" rx="2.56" ry="3.414" transform="translate(233.181 188.398)" fill="#ffb8b8"/><path d="M714.184,592.028H537.051l-37.51-177.319H467.529v-7.956H505.99L543.5,584.071H714.184Z" transform="translate(-156.044 -135.759)" fill="#3f3d56"/><circle cx="17.05" cy="17.05" r="17.05" transform="translate(389.914 454.563)" fill="#3f3d56"/><circle cx="17.05" cy="17.05" r="17.05" transform="translate(517.22 454.563)" fill="#3f3d56"/><path d="M887.333,683.416H714.992L684.584,533.145H915.869a8.171,8.171,0,0,1,8.072,9.438L895.4,676.514a8.13,8.13,0,0,1-8.07,6.9Zm-170.469-2.273H887.333a5.867,5.867,0,0,0,5.824-4.982l28.537-133.93a5.9,5.9,0,0,0-5.825-6.812H687.344Z" transform="translate(-332.422 -230.894)" fill="#3f3d56"/><path d="M614.537,603.935,594.623,455.467l2.243-.37,19.914,148.468Z" transform="translate(-198.464 -151.895)" fill="#3f3d56"/><path d="M789.588,602.8l-2.245-.364L806.675,455.1l2.245.364Z" transform="translate(-262.787 -151.897)" fill="#3f3d56"/><rect width="2.273" height="148.468" transform="translate(471.772 303.387)" fill="#3f3d56"/><rect width="2.273" height="220.055" transform="translate(363.768 345.441) rotate(-89.861)" fill="#3f3d56"/><rect width="193.327" height="2.273" transform="translate(374.981 414.717) rotate(-0.392)" fill="#3f3d56"/><ellipse cx="12.503" cy="6.82" rx="12.503" ry="6.82" transform="translate(302.392 267.014)" fill="#3f3d56"/></g></g></svg>