<svg xmlns="http://www.w3.org/2000/svg" xmlns:xlink="http://www.w3.org/1999/xlink" width="799.974" height="681.425" viewBox="0 0 799.974 681.425"><defs><linearGradient id="a" x1="0.5" y1="1" x2="0.5" gradientUnits="objectBoundingBox"><stop offset="0" stop-color="gray" stop-opacity="0.251"/><stop offset="0.54" stop-color="gray" stop-opacity="0.122"/><stop offset="1" stop-color="gray" stop-opacity="0.102"/></linearGradient></defs><g transform="translate(-126.49 -224.705)"><path d="M-127.306-71.8C5.4-139.958,252.377-227.847,403.513-7.9c106.7,155.28-185.1,75.467-329.689,93.023S-63.811,289.483-127.306,264.747C-343.269,180.611-260.01-3.634-127.306-71.8Z" transform="matrix(0.891, 0.454, -0.454, 0.891, 479.251, 474.618)" fill="#ff8a05" opacity="0.25"/><g transform="translate(230.497 297.508)"><rect width="636.585" height="4.652" transform="translate(0 406.923)" fill="#85848b"/><path d="M857.8,652.03c0,3.578-20.858,14.01-45.634,14.01s-44.081-10.432-44.081-14.01,20.082-2.426,44.882-2.426S857.8,648.446,857.8,652.03Z" transform="translate(-353.455 -327.248)" fill="#504f60"/><path d="M857.8,653.72c0,3.578-20.858,14.01-45.634,14.01S768.08,657.3,768.08,653.72" transform="translate(-353.455 -328.938)" opacity="0.2"/><path d="M503.489,539.292c4.021.516,8.194.843,12.045-.406.607-.188,1.274-.607,1.213-1.213a1.468,1.468,0,0,0-.273-.607,37.464,37.464,0,0,1-3.639-6.932.607.607,0,0,0-.224-.315.57.57,0,0,0-.388,0c-1.777.467-3.312,1.613-5.076,2.1a7.218,7.218,0,0,1-2.766.206c-.8-.091-1.892-.752-2.62-.667C502.172,534.112,503.179,536.587,503.489,539.292Z" transform="translate(-248.662 -280.171)" fill="#ff8a05"/><path d="M627.135,525.466c2.651-1.82,5.4-3.73,6.963-6.538a1.134,1.134,0,0,0,.188-.564,1.164,1.164,0,0,0-.224-.546,22.537,22.537,0,0,0-5.659-6.108,16.5,16.5,0,0,0-3.154,2.911c-.667.7-2.511,1.82-2.529,2.893,0,.607.7,1.31,1.031,1.82.443.655.861,1.322,1.262,2C625.243,521.669,627.348,525.332,627.135,525.466Z" transform="translate(-296.258 -273.059)" fill="#ff8a05"/><path d="M503.939,550.221a2.7,2.7,0,0,1-.485,1.759,2.384,2.384,0,0,1-1.019.607c-5.622,2.014-12.13-.5-17.741,1.486-1.152.406-2.244.995-3.4,1.383a18.512,18.512,0,0,1-4.246.752c-1.983.188-3.979.309-5.968.364a14.352,14.352,0,0,1-4.5-.394,5.4,5.4,0,0,1-3.451-2.735,2.626,2.626,0,0,1-.17-1.947,2.1,2.1,0,0,1,.37-.606,5.317,5.317,0,0,1,1.322-1.074l2.068-1.334a13.885,13.885,0,0,1,3.136-1.662c.819-.267,1.686-.382,2.517-.607,2.905-.849,5.125-3.154,7.187-5.368l2.814-3a2.833,2.833,0,0,1,.976-.782,2.706,2.706,0,0,1,1.213-.115,16.218,16.218,0,0,1,7.672,2.572,9.941,9.941,0,0,0,1.892,1.116,6.756,6.756,0,0,0,5.289-.655c.722-.388.564-.607.867-1.3s1.043-1.134,1.686-.5a1.783,1.783,0,0,1,.4.764c.607,2,.376,4.155.376,6.253a2.754,2.754,0,0,0,.121.97,5.491,5.491,0,0,0,.552.9,2.044,2.044,0,0,1,.115.23,6.168,6.168,0,0,1,.406,2.93Z" transform="translate(-233.349 -282.979)" fill="#514e7f"/><path d="M503.939,556.938a2.7,2.7,0,0,1-.485,1.759,2.383,2.383,0,0,1-1.019.606c-5.622,2.014-12.13-.5-17.741,1.486-1.152.406-2.244.995-3.4,1.383a18.515,18.515,0,0,1-4.246.752c-1.983.188-3.979.309-5.968.364a14.35,14.35,0,0,1-4.5-.394,5.4,5.4,0,0,1-3.451-2.735,2.626,2.626,0,0,1-.17-1.947,2.1,2.1,0,0,1,.37-.607c.328.685.564,1.6.77,1.923a3.936,3.936,0,0,0,2.632,1.9,6.538,6.538,0,0,0,2.426-.309c5.095-1.262,10.511-1.28,15.405-3.19a35.624,35.624,0,0,1,5.046-1.941,39.669,39.669,0,0,1,5.459-.443c2.875-.23,5.659-1.1,8.491-1.553a6.168,6.168,0,0,1,.382,2.948Z" transform="translate(-233.349 -289.695)" fill="#464353"/><path d="M630.569,527.48a10.223,10.223,0,0,1-3.105,5.531,36.169,36.169,0,0,0-4.349,4.755c-1.456,2.226-2.111,4.986-4,6.866a10.978,10.978,0,0,1-2.426,1.729,16.932,16.932,0,0,1-3.124,1.437c-2.826.9-5.871.7-8.825.479a7.937,7.937,0,0,1-2.8-.54,8.444,8.444,0,0,1-1.165-.716,5.562,5.562,0,0,1-1.819-1.819,1.82,1.82,0,0,1-.176-1.322,3.106,3.106,0,0,1,.843-1.286,20.022,20.022,0,0,1,2.135-1.923,12.778,12.778,0,0,0,2.778-2.426,7.834,7.834,0,0,0,1.073-2.426,21.521,21.521,0,0,0,.782-4.64,14.7,14.7,0,0,1,.321-3.105c.449-1.6,1.638-3.033,1.5-4.688a1.171,1.171,0,0,1,.061-.71.989.989,0,0,1,.558-.346,9.887,9.887,0,0,1,2.9-.673,3.379,3.379,0,0,1,2.693,1.055c.412.5.685,1.213,1.292,1.407a2.049,2.049,0,0,0,.922.036,7.724,7.724,0,0,0,4.246-1.3,5.3,5.3,0,0,0,1.759-3.864c0-.552-.249-1.128.606-1.213.643-.085,1.152.607,1.48,1.031a14.37,14.37,0,0,1,2.838,5.168,1.523,1.523,0,0,1,.54-.1,2.347,2.347,0,0,1,1.935.989A3.851,3.851,0,0,1,630.569,527.48Z" transform="translate(-286.815 -275.443)" fill="#514e7f"/><path d="M630.718,531.38a10.223,10.223,0,0,1-3.105,5.531,36.165,36.165,0,0,0-4.349,4.755c-1.456,2.226-2.111,4.986-4,6.866a10.975,10.975,0,0,1-2.426,1.729,16.924,16.924,0,0,1-3.124,1.437c-2.826.9-5.871.7-8.825.479a7.94,7.94,0,0,1-2.8-.54,8.45,8.45,0,0,1-1.165-.716,5.561,5.561,0,0,1-1.819-1.82,4.435,4.435,0,0,1,1.819-.437c1.31.073,2.268,1.31,3.524,1.692,1.789.54,3.572-.722,5.386-1.152,1.183-.279,2.426-.206,3.6-.607a8.891,8.891,0,0,0,2.663-1.613,13.555,13.555,0,0,0,2.845-2.741,17.617,17.617,0,0,0,1.668-3.33,47.616,47.616,0,0,1,3.372-6.453,4.558,4.558,0,0,1,.685-.9,9.553,9.553,0,0,1,.928-.673,7.049,7.049,0,0,0,2.141-3.906,6.834,6.834,0,0,1,.479-1.3,2.347,2.347,0,0,1,1.935.989A3.851,3.851,0,0,1,630.718,531.38Z" transform="translate(-286.963 -279.343)" fill="#464353"/><path d="M440.005,212.277a12.864,12.864,0,0,1,3.639,4.246c.849,1.662,5.744,14.556,5.459,16.43,1.6-1.607,7.885-1.868,9.5-3.475.673-.673,4.306-4.033,4.852-4.816s4.6-2.426,5.04-3.251c1.656-2.966-11.742-14.2-10.026-17.134a.764.764,0,0,0,.14-.461.752.752,0,0,0-.224-.358,20.09,20.09,0,0,0-3.876-2.65,6.146,6.146,0,0,1-2.954-3.518,12.737,12.737,0,0,0-3.427,2.317q-3.688,3.16-7.248,6.447c-.928.861-2.723,2.008-3.154,3.239C437.215,210.615,439.12,211.555,440.005,212.277Z" transform="translate(-223.431 -149.339)" fill="#a1616a"/><path d="M466.349,214.13a39.474,39.474,0,0,0-5.738,4.694c-1.662,1.644-3.239,3.548-3.639,5.847-.17.9-.146,1.82-.285,2.735-.607,3.973-4.039,6.884-5.556,10.6a18.381,18.381,0,0,0-.964,3.548,41.935,41.935,0,0,0-.7,6.963c-.036,2.262,2.183,3.821,3,5.932a36.217,36.217,0,0,1,1.444,6.447,76.389,76.389,0,0,0,3.639,11.948c2.99,8.261,12.682,31.1,15.672,39.363,9.164-2.3,33.558-7.581,41.674-12.427,2.705-1.613-18.772-19.815-15.879-21.07a1.08,1.08,0,0,0,.813-1.522c-2.893-12.652-11.942-23.048-16.048-35.366-1.425-4.276-3.985-7.927-5.926-11.991-1.759-3.682-2.7-7.751-4.8-11.251a7.1,7.1,0,0,0-1.534-1.911,9.051,9.051,0,0,0-1.692-1.025C468.623,215.064,467.507,214.718,466.349,214.13Z" transform="translate(-228.086 -155.965)" fill="#514e7f"/><circle cx="14.344" cy="14.344" r="14.344" transform="translate(202.715 32.812)" fill="#a1616a"/><path d="M466.4,206.263a4.81,4.81,0,0,1,5.392-.776,2.606,2.606,0,0,1,1.6,2.59l7.114.109a14.284,14.284,0,0,1,3.372.309,4.9,4.9,0,0,1,2.814,1.765c.085.115.182.255.328.273a.522.522,0,0,0,.327-.109,6.175,6.175,0,0,1,3.542-.607c3.845.249,7.4,2.171,10.414,4.573a3.366,3.366,0,0,1,1.213,1.51c.249.807-.049,1.82.607,2.4,0,6.672,2.293,12.907,3.821,19.408.273,1.158,1.383,2.183,2.153,3.093a12.477,12.477,0,0,1,2.3,3.433c1.3,3.372-.491,7.339.77,10.723a18.376,18.376,0,0,0,2.426,3.851,9.959,9.959,0,0,1,2.074,4.973c.055.813-.049,1.632,0,2.426a14.691,14.691,0,0,0,.607,3.221q.776,2.936,1.625,5.865c.922,3.154,2.123,6.556,4.949,8.236-6.823,1.158-14.017,2.293-20.518-.079a10.639,10.639,0,0,1-2.56-1.28c-2.347-1.674-3.481-4.537-4.494-7.242a34.2,34.2,0,0,1-2.5-9.346,10.73,10.73,0,0,0-.431-3.033c-.661-1.759-2.426-2.82-4.027-3.8a19.336,19.336,0,0,1-4.852-3.773,7.539,7.539,0,0,1-1.965-5.665c.121-1,.516-1.965.552-2.972a2.328,2.328,0,0,0-1.377-2.426c-4.967-1.5-7.339-7.387-8.443-12.458a40,40,0,0,1-.637-7.945l-.067-5.174a6.829,6.829,0,0,1-2.232-4.907,5.829,5.829,0,0,0-.03-1.625,4.482,4.482,0,0,0-1.14-1.729A15.431,15.431,0,0,1,466.4,206.263Z" transform="translate(-234.748 -152.368)" fill="#464353"/><path d="M440.562,231.364c-.164,1.6.2,3.245-.158,4.816-.139.607-.382,1.213-.558,1.777a10.432,10.432,0,0,0,.661,6.751,37.609,37.609,0,0,0,3.451,5.974,9.7,9.7,0,0,1,1.1,2.068,10.707,10.707,0,0,1,.425,2.359,73.275,73.275,0,0,0,1.686,9.534c.679,2.717,8.394,25.947,10.189,28.1a2.287,2.287,0,0,0,1.383.94,2.517,2.517,0,0,0,1.177-.243l3.639-1.395a2.378,2.378,0,0,0,.843-.461,2.171,2.171,0,0,0,.522-1.431c.261-2.96-7.472-26.353-8.455-29.149-2.972-8.443-6.926-16.582-8.861-25.322-.54-2.426-.825-6.162-2.6-8.1-.734-.8-.485-.461-1.365-.042a9.952,9.952,0,0,0-1.286.673A4.209,4.209,0,0,0,440.562,231.364Z" transform="translate(-224.188 -161.069)" fill="#464353"/><path d="M556.62,320.79" transform="translate(-270.248 -197.934)" fill="#464353"/><path d="M458.862,244.435c.977,5.161,1.983,10.311,2.984,15.472l14.241-3.73c.115-1.492-.679-2.875-1.213-4.246-1.3-3.257-1.328-6.884-2.378-10.232-.795-2.547-2.177-4.888-2.923-7.454-.431-1.492-.649-3.033-1.074-4.543a32.985,32.985,0,0,0-1.674-4.337,27.147,27.147,0,0,0-3.105-5.756c-1.82.679-3.76,1.468-4.8,3.111a6.72,6.72,0,0,0-.886,3.033c-.249,3.2.91,6.411.528,9.589a28.2,28.2,0,0,0,.3,9.092Z" transform="translate(-231.443 -158.122)" fill="#ff8a05"/><path d="M483.076,353.766c.8,3.033-.358,6.223-1.3,9.225a71.5,71.5,0,0,0-2.9,13.889,12.021,12.021,0,0,1-.716,3.512c-.449,1.013-1.213,1.868-1.735,2.832-1.431,2.535-1.4,5.628-1.086,8.528.206,1.911.516,3.815.9,5.7.467,2.3,1.043,4.7.37,6.945,1.128-.249,1.892,1.213,1.82,2.359s-.443,2.426.109,3.415c1.395.509,1.407,2.426,1.365,3.912a32.9,32.9,0,0,0,.97,7.642q3.166,15.223,6.72,30.362c5.125,1.589,11.111,3.245,16,1.043a3.209,3.209,0,0,0,2.026-2.038,3.555,3.555,0,0,0-.194-1.565l-2.317-8.431a15.48,15.48,0,0,1-.831-6.235c.224-1.559.9-3.239.139-4.616-.261-.473-.673-.843-.976-1.292-1.213-1.777-.576-4.155-.479-6.308a5,5,0,0,0-.1-1.444,7.207,7.207,0,0,0-.691-1.583A24.212,24.212,0,0,1,497.5,407.57a2.978,2.978,0,0,0-.212-1.571,5.08,5.08,0,0,1-.394-.643,1.759,1.759,0,0,1,.127-1.159,10.613,10.613,0,0,1-1.868-1.82,2.614,2.614,0,0,0,.449-4.088,1.365,1.365,0,0,0,.649-2.347c-.3-.206-.691-.3-.9-.607-.328-.449-.061-1.073.206-1.553l1.413-2.553c1.055-1.9,1.292-4.246,2.426-6.065a45.458,45.458,0,0,0,3.736-8.528l4.082-11.263,2.748,2.384a8.685,8.685,0,0,1,2.256,2.572,11.1,11.1,0,0,1,.734,3.081c1.007,6.114,4.852,11.415,6.277,17.437a11.483,11.483,0,0,0,1.3,3.894,8.489,8.489,0,0,1,.74,1.116,5.918,5.918,0,0,1,.309,1.85,8.631,8.631,0,0,0,3.639,6.186c1.353.928,3.033,1.565,3.766,3.033a5.653,5.653,0,0,0,.607,1.292c.655.788,2.068.879,2.347,1.868.158.552-.133,1.213.176,1.7a1.607,1.607,0,0,0,.673.5l3.948,1.971c4.415,2.208,6.672,7.278,9.929,10.972a23.653,23.653,0,0,1,2.972,3.93c1.407,2.517,2.056,5.677,4.434,7.278a6.708,6.708,0,0,1,1.723,1.28c.746.983.473,2.359.54,3.6s1.013,2.711,2.19,2.335a8.63,8.63,0,0,0,0,4.579,23.048,23.048,0,0,0,13.986-5.665c1.152-1.007,2.262-2.293,2.274-3.821a1.37,1.37,0,0,0-.17-.758,2.165,2.165,0,0,0-.892-.673c-3.694-2-4.8-6.641-6.672-10.408-1.632-3.324-4.045-6.186-6.065-9.274-4.391-6.641-7.387-14.678-14.029-19.063-1.462-.964-3.16-1.82-3.894-3.415-.406-.892-.455-1.91-.776-2.832a2.458,2.458,0,0,0-2.074-1.82,12.714,12.714,0,0,0,.473-4.4,5.562,5.562,0,0,0-.218-1.9,9.237,9.237,0,0,0-.977-1.88,18.038,18.038,0,0,1-2.5-9.7c.048-1.753.358-3.56-.17-5.234-.267-.843-.734-1.613-1.055-2.426A15.163,15.163,0,0,1,535,360.4l-.364-5.829a28.675,28.675,0,0,0-.752-5.762c-1.213-4.525-2.426-23.478-6.581-25.613s-11.293,12.452-15.97,12.737a20.8,20.8,0,0,0-6.065,1.171c-3.111,1.165-5.719,3.336-8.261,5.459l-8.6,7.224A31.685,31.685,0,0,1,483.076,353.766Z" transform="translate(-238.196 -198.795)" fill="#464353"/><path d="M417.783,167.074a10.812,10.812,0,0,1,8.346-4.07,19.438,19.438,0,0,1,9.225,2.317,11.4,11.4,0,0,0,2.693,1.1c1.516.309,3.2-.1,4.573.607,1.82.964,2.171,3.421,2.014,5.459s-.54,4.3.546,6.065a14.023,14.023,0,0,1,1.049,1.583,5.235,5.235,0,0,1-.085,3.372,21.856,21.856,0,0,1-1.741-2.226,2.05,2.05,0,0,0-2.511-.649c-.782.528-.77,1.486-.813,2.347s-.261,1.892-1.073,2.171a1.741,1.741,0,0,1-1.82-.71c-1.389-1.7-.831-4.409-2.208-6.12-.782-.97-2.086-1.444-2.808-2.462-.57-.8-.716-1.82-1.213-2.681s-1.656-1.492-2.426-.9a3.282,3.282,0,0,0-.649.867,3.73,3.73,0,0,1-4.427,1.334,7.407,7.407,0,0,0-1.917-.831,2.371,2.371,0,0,0-2.19,1.213,4.738,4.738,0,0,0-.607,2.535c0,1.213.218,2.5-.473,3.475a3.6,3.6,0,0,1-.97.922c-1.013.649-2.426,1.086-3.36.346a2.523,2.523,0,0,1-.752-2.353,19.027,19.027,0,0,1,.716-2.487c.534-1.88-.164-4,.419-5.768A18.414,18.414,0,0,1,417.783,167.074Z" transform="translate(-214.182 -135.844)" fill="#464353"/><path d="M432.791,223.5a2.208,2.208,0,0,0,.133,1.316,2.092,2.092,0,0,0,.716.685,14.714,14.714,0,0,0,6.757,2.19,2.057,2.057,0,0,1,.934.243,1.642,1.642,0,0,1,.394,1.88,4.894,4.894,0,0,0-.431,2c.176,1.268,1.68,1.82,2.948,2.008a6.857,6.857,0,0,0,5.131-1,7.927,7.927,0,0,0,2.117-3.172c3.481-8,4.7-16.843,8.224-24.819a5.264,5.264,0,0,0,.528-1.662,1.638,1.638,0,0,0-.655-1.528c-.655-.406-1.674-.176-2.117-.813-.218-.321-.194-.758-.388-1.1-.406-.722-1.474-.607-2.2-1.025-.57-.3-.964-.928-1.6-1.049a2.014,2.014,0,0,0-1.656.716c-2.068,1.929-3.154,4.664-4.306,7.248a84.968,84.968,0,0,1-6.162,11.427c.273-.425-1.31-3.639-1.929-3.779-1.086-.218-2.475,1.686-3.063,2.4a15.26,15.26,0,0,0-3.372,7.836Z" transform="translate(-221.505 -149.482)" fill="#ff8a05"/><path d="M464.763,200.32a2.905,2.905,0,0,0-2.25,1.128,6.417,6.417,0,0,0-.94,3.033,26.352,26.352,0,0,1-3.572,9.6" transform="translate(-231.443 -150.531)" opacity="0.1"/><path d="M469.953,204.31a3.463,3.463,0,0,0-2.942,1.765,9.916,9.916,0,0,0-.74,3,16.442,16.442,0,0,1-2.942,6.3" transform="translate(-233.54 -152.101)" opacity="0.1"/><path d="M491.774,381.359v-7.533a20.913,20.913,0,0,0-20.913-20.907H173.373a20.913,20.913,0,0,0-20.913,20.907v13.889Z" transform="translate(-111.217 -210.577)" fill="#33323d"/><path d="M323.377,308.232s-.849,52.682,8.491,70.016,13.343,92.742,13.343,92.742,97.916,10.129,166.149-12.13S724.78,427.5,724.78,427.5L700.314,262.592s-120.872-7.751-189.633,25.043S323.377,308.232,323.377,308.232Z" transform="translate(-178.462 -174.72)" fill="#8dd070"/><path d="M323.377,308.232s-.849,52.682,8.491,70.016,13.343,92.742,13.343,92.742,97.916,10.129,166.149-12.13S724.78,427.5,724.78,427.5L700.314,262.592s-120.872-7.751-189.633,25.043S323.377,308.232,323.377,308.232Z" transform="translate(-178.462 -174.72)" opacity="0.1"/><path d="M358.729,335.031s-3.063,43.469,4.622,57.358,8.042,75.893,8.042,75.893,88.12,4.088,150.8-17.249S716.6,415.855,716.6,415.855L701.634,281s-108.991-1.122-172.6,28.913S358.729,335.031,358.729,335.031Z" transform="translate(-192.144 -182.274)" fill="#8dd070"/><ellipse cx="22.878" cy="49.067" rx="22.878" ry="49.067" transform="translate(301.088 149.514) rotate(-7.1)" opacity="0.1"/><path d="M611.949,130.66s-117.427,29.719-172.8,82.031S267.2,289.773,267.2,289.773s15.357,50.4,29.562,64.03,41.146,84.184,41.146,84.184,96.3-20.415,154.4-62.556,193.521-95.362,193.521-95.362Z" transform="translate(-156.366 -123.121)" opacity="0.2"/><path d="M264.29,277.337s15.351,50.4,29.543,64.036,41.146,84.178,41.146,84.178S431.288,405.142,489.4,363s193.514-95.344,193.514-95.344L609.033,118.23s-117.421,29.719-172.8,82.031S264.29,277.337,264.29,277.337Z" transform="translate(-155.221 -118.23)" fill="#8dd070"/><path d="M264.29,277.337s15.351,50.4,29.543,64.036,41.146,84.178,41.146,84.178S431.288,405.142,489.4,363s193.514-95.344,193.514-95.344L609.033,118.23s-117.421,29.719-172.8,82.031S264.29,277.337,264.29,277.337Z" transform="translate(-155.221 -118.23)" opacity="0.1"/><path d="M308,298.163s10.426,42.317,22,53.173,30.932,69.749,30.932,69.749,85.118-23.157,138.231-62.7S673.413,265.3,673.413,265.3L617.789,141.5s-104.072,32.37-155.4,80.478S308,298.163,308,298.163Z" transform="translate(-172.42 -127.386)" fill="#8dd070"/><ellipse cx="22.878" cy="49.067" rx="22.878" ry="49.067" transform="translate(262.618 126.414) rotate(-24.97)" opacity="0.1"/><path d="M499.817,398.315V607.562a18.092,18.092,0,0,1-18.1,18.092H170.576a18.092,18.092,0,0,1-18.086-18.092V377.22c8.916,3.312,8.916,3.312,18.086,3.033H481.718A18.1,18.1,0,0,1,499.817,398.315Z" transform="translate(-111.229 -220.139)" opacity="0.1"/><path d="M499.817,402.7V611.948a18.1,18.1,0,0,1-18.1,18.092H170.576a18.092,18.092,0,0,1-18.086-18.092V381.6c8.916,3.306,8.916,3.306,18.086,3.033H481.718a18.1,18.1,0,0,1,18.1,18.068Z" transform="translate(-111.229 -221.862)" fill="#504f60"/><path d="M659.878,543.938v66.917h-64.9a33.46,33.46,0,1,1,0-66.92Z" transform="translate(-272.176 -285.739)" opacity="0.1"/><path d="M661.338,541v66.929h-64.9a33.46,33.46,0,1,1,0-66.92Z" transform="translate(-272.751 -284.584)" fill="#33323d"/><circle cx="13.046" cy="13.046" r="13.046" transform="translate(313.756 278.615)" opacity="0.1"/><circle cx="13.046" cy="13.046" r="13.046" transform="translate(314.641 276.844)" fill="#ff8a05"/><path d="M883.317,533.975c.516,5.586-3.712,11.008-2.481,16.479.267,1.171.77,2.274.952,3.457.509,3.251-1.425,6.326-3.275,9.043l-15.891,23.314a14.472,14.472,0,0,1-2.268,2.8c-3.033,2.705-7.594,2.426-11.584,3.233a19.8,19.8,0,0,0-7.763,3.433.5.5,0,0,0-.073.679,6.672,6.672,0,0,0,5.774,2.711c.418.552,0,1.359-.607,1.753-.855.607-2.026.752-2.2,2.2a2.383,2.383,0,0,0,.291,1.456,4.518,4.518,0,0,0,2.778,1.935c5.5,1.68,11.445-1.274,15.563-5.295s7.072-9.1,11.111-13.192c2.238-2.262,4.779-4.2,7.084-6.4,4.6-4.379,8.17-9.7,11.621-15.035a16.778,16.778,0,0,0,2.517-5.119c.437-1.862.23-3.742.722-5.544.643-2.365,2.371-4.246,3.809-6.229,2.82-3.882,4.7-8.631,4.331-13.41s-3.336-9.5-7.848-11.13a6.975,6.975,0,0,0-4.4-.267c-1.85.57-3.215,2.1-4.476,3.56l-3.033,3.487a8.175,8.175,0,0,0-1.759,2.669,2.8,2.8,0,0,0,.606,2.966" transform="translate(-382.082 -278.135)" fill="#fbbebe"/><path d="M883.317,533.975c.516,5.586-3.712,11.008-2.481,16.479.267,1.171.77,2.274.952,3.457.509,3.251-1.425,6.326-3.275,9.043l-15.891,23.314a14.472,14.472,0,0,1-2.268,2.8c-3.033,2.705-7.594,2.426-11.584,3.233a19.8,19.8,0,0,0-7.763,3.433.5.5,0,0,0-.073.679,6.672,6.672,0,0,0,5.774,2.711c.418.552,0,1.359-.607,1.753-.855.607-2.026.752-2.2,2.2a2.383,2.383,0,0,0,.291,1.456,4.518,4.518,0,0,0,2.778,1.935c5.5,1.68,11.445-1.274,15.563-5.295s7.072-9.1,11.111-13.192c2.238-2.262,4.779-4.2,7.084-6.4,4.6-4.379,8.17-9.7,11.621-15.035a16.778,16.778,0,0,0,2.517-5.119c.437-1.862.23-3.742.722-5.544.643-2.365,2.371-4.246,3.809-6.229,2.82-3.882,4.7-8.631,4.331-13.41s-3.336-9.5-7.848-11.13a6.975,6.975,0,0,0-4.4-.267c-1.85.57-3.215,2.1-4.476,3.56l-3.033,3.487a8.175,8.175,0,0,0-1.759,2.669,2.8,2.8,0,0,0,.606,2.966" transform="translate(-382.082 -278.135)" opacity="0.05"/><path d="M921.709,772.959c-3.469,2.117-7.794,2.244-11.827,1.753-.649-.079-1.419-.127-1.82.376-.607.728.109,1.82.849,2.384a17.5,17.5,0,0,0,8.121,3.342,53.478,53.478,0,0,0,7.945.528c7.278.127,14.556.249,21.719-.794a3.075,3.075,0,0,0,1.213-.352,2.22,2.22,0,0,0,.9-1.365,5.413,5.413,0,0,0-1.886-5.168,15.835,15.835,0,0,0-5.064-2.717l-6.308-2.456c-1.48-.576-3.851-2.1-5.459-1.983C927.07,766.724,924.214,771.491,921.709,772.959Z" transform="translate(-408.446 -373.314)" fill="#3f3d56"/><path d="M921.709,772.959c-3.469,2.117-7.794,2.244-11.827,1.753-.649-.079-1.419-.127-1.82.376-.607.728.109,1.82.849,2.384a17.5,17.5,0,0,0,8.121,3.342,53.478,53.478,0,0,0,7.945.528c7.278.127,14.556.249,21.719-.794a3.075,3.075,0,0,0,1.213-.352,2.22,2.22,0,0,0,.9-1.365,5.413,5.413,0,0,0-1.886-5.168,15.835,15.835,0,0,0-5.064-2.717l-6.308-2.456c-1.48-.576-3.851-2.1-5.459-1.983C927.07,766.724,924.214,771.491,921.709,772.959Z" transform="translate(-408.446 -373.314)" opacity="0.05"/><path d="M934.891,615.868c-2.626,3.494-5.343,7.527-4.694,11.851.352,2.329,1.656,4.385,2.614,6.538a46.128,46.128,0,0,1,2.644,9.195c.983,4.573,1.971,9.158,2.572,13.8.685,5.246-2.535,20.427-2.832,25.71a5.434,5.434,0,0,1-1.11,3.566c-.346.364-.807.655-.964,1.128a1.929,1.929,0,0,0,.212,1.334,14.678,14.678,0,0,0,7.885,7.242c3.378,1.419,11.524,3.87,15.205,4a3.032,3.032,0,0,0,1.431-.188,2.783,2.783,0,0,0,1.1-1.268c2.638-5.046.1-22.987.14-28.682.036-4.749,1.158-9.468.952-14.211-.17-3.809-1.213-7.533-1.559-11.33-.607-6.223.534-12.476,1.68-18.626.873-4.719,1.753-9.437,2.875-14.1a27.064,27.064,0,0,1,3.032-8.182c1.213-1.959,2.917-3.6,4.331-5.459a24.637,24.637,0,0,0,4.852-18.038c-.085-.606-9.1,2.287-9.892,2.632a30.818,30.818,0,0,0-8.819,5.671c-2.086,1.989-3.73,4.646-5.556,6.872q-3.876,4.725-7.654,9.516Q939.028,610.324,934.891,615.868Z" transform="translate(-417.207 -299.958)" fill="#464353"/><path d="M934.891,615.537c-2.626,3.494-5.343,7.533-4.694,11.851.352,2.335,1.656,4.391,2.614,6.544a46.069,46.069,0,0,1,2.644,9.189c.983,4.579,1.971,9.164,2.572,13.8.685,5.252-2.535,20.427-2.832,25.71a5.45,5.45,0,0,1-1.11,3.572c-.346.358-.807.649-.964,1.122a1.923,1.923,0,0,0,.212,1.334,14.856,14.856,0,0,0,7.885,7.278c3.378,1.456,11.524,2.723,15.205,2.845a3.032,3.032,0,0,0,1.431-.188,2.741,2.741,0,0,0,1.1-1.262c2.638-5.046.1-21.835.14-27.536.036-4.755,1.158-9.468.952-14.217-.17-3.809-1.213-7.533-1.559-11.324-.607-6.229.534-12.482,1.68-18.632.873-4.713,1.753-9.431,2.875-14.1a27.064,27.064,0,0,1,3.032-8.182c1.213-1.959,2.917-3.6,4.331-5.459a24.624,24.624,0,0,0,4.852-18.038c-.085-.607-9.1,2.287-9.892,2.632a30.963,30.963,0,0,0-8.819,5.677c-2.086,1.983-3.73,4.64-5.556,6.866q-3.876,4.725-7.654,9.522Q939.028,609.988,934.891,615.537Z" transform="translate(-417.207 -299.84)" opacity="0.05"/><circle cx="14.72" cy="14.72" r="14.72" transform="translate(473.742 209.526)" fill="#fbbebe"/><path d="M902.575,485.118a19.063,19.063,0,0,0,12.221,8.528l-1.11,4.033c-1.917,6.926-4.07,14.253-9.419,19.057a8.858,8.858,0,0,0-1.492-6.89,25.972,25.972,0,0,0-5-5.222l-8.473-7.339a2.554,2.554,0,0,1-.607-.716,2.153,2.153,0,0,1,0-1.613c1.08-3.36,4.161-5.459,6.672-7.727a23.1,23.1,0,0,0,3.354-3.906C900.416,480.908,901.465,483.334,902.575,485.118Z" transform="translate(-400.854 -261.49)" fill="#fbbebe"/><path d="M855.469,455.9l-.334-2.766c2.323.607,4.531-1.371,6.017-3.415s2.863-4.452,5.125-5.307c2.748-1.031,5.659.607,8.285,1.989a26.2,26.2,0,0,0,9.5,3.093,6.253,6.253,0,0,1,1.571.255c1.71.606,2.523,2.754,2.772,4.7s.182,4.015,1.025,5.75c.607,1.316,1.735,2.293,2.426,3.591,1.82,3.481.061,8.243,1.959,11.657l-4.719-4.324c-.431-.394-1.037-.807-1.516-.473-.376.267-.406.843-.558,1.3a2.477,2.477,0,0,1-3.36,1.213,9.63,9.63,0,0,1-3.033-2.748,18.407,18.407,0,0,0-7.484-5.677,9.607,9.607,0,0,0-7.885.522c-2.2,1.243-3.815,4.142-6.514,4.246-3.7.139-5.24-6.751-6.951-9.474a3.336,3.336,0,0,0,.97-4.173C853.019,455.758,855.415,455.473,855.469,455.9Z" transform="translate(-386.397 -246.449)" fill="#464353"/><path d="M554.563,319.407a28.641,28.641,0,0,0-3.269,3.433,6.872,6.872,0,0,0-1.5,4.409,2.257,2.257,0,0,0,.425,1.292,1.092,1.092,0,0,0,1.213.37,1.631,1.631,0,0,0,.606-.534,29.278,29.278,0,0,1,2.038-2.208c.261-.261.607-.534.958-.437a1.025,1.025,0,0,1,.412.273,2.79,2.79,0,0,1,.855,1.334,3.144,3.144,0,0,1-.94,2.584,6.62,6.62,0,0,0-1.583,2.341,1.037,1.037,0,0,0,0,.752,1.128,1.128,0,0,0,.473.4,6.769,6.769,0,0,0,5.725.376c1.213-.491,2.293-1.334,3.542-1.771a8.187,8.187,0,0,0,1.565-.607,3.251,3.251,0,0,0,1.389-2.08,8.578,8.578,0,0,0,.091-2.553,29.361,29.361,0,0,0-2.086-9.6,1.214,1.214,0,0,0-.352-.509,1.122,1.122,0,0,0-.607-.164c-1.553-.164-4.1-.958-5.6-.382a3.954,3.954,0,0,0-1.322,1.177C556.315,317.612,554.563,319,554.563,319.407Z" transform="translate(-267.56 -196.018)" fill="#a1616a"/><path d="M542.722,282.636c0-1.48-1.82-5.052,1.074-5.289,0-1.583-2.238-2.566-1.82-4.246.133-.558.607-1.013.661-1.583.182-1.619-2.741-2.5-2.256-4.052.182-.607.825-.958.964-1.559.328-1.4-2.177-2.026-2.226-3.463,0-.485.273-.94.249-1.425,0-.607-.528-1.067-.819-1.6-.758-1.353-.388-3.445-1.771-4.142.916.079,1.213-1.28.837-2.111s-1.146-1.553-1.152-2.475a3.738,3.738,0,0,0,0-1.007c-.255-.885-1.7-.958-1.947-1.82a7.753,7.753,0,0,1-.03-.995c-.1-.685-.8-1.122-1.462-1.316a5.962,5.962,0,0,1-1.953-.7c-.425-.321-.916-.855-1.371-.607-.17.1-.255.3-.382.443-.546.637-1.589.358-2.274-.109-2.026-1.377-3.033-3.845-3.463-6.253s-.419-4.895-.958-7.278a15.546,15.546,0,0,0-.655-2.183,11.489,11.489,0,0,1-1.019-2.171c-.109-1.395,2.778-.443,3.876-.3a17.261,17.261,0,0,1,3.148.607,33.657,33.657,0,0,1,3.221,1.413c4.379,1.935,9.668,2.171,13.186,5.422,1.158,1.067,2.135,2.469,3.639,2.954a16.461,16.461,0,0,1,2.038.528c1.668.782,1.929,3,2.838,4.6a9.009,9.009,0,0,1,.746,1.334,5.14,5.14,0,0,1,.243,1.7l.127,4.2a155,155,0,0,1-.34,21.1c-.243,2.311-.606,4.688.079,6.908.182.607.437,1.177.607,1.789a10.914,10.914,0,0,1,.23,2.183l.1,2.723a.85.85,0,0,1-.133.607.873.873,0,0,1-.734.176c-3.791-.34-7.624-2.475-11.2-1.183" transform="translate(-256.211 -160.618)" fill="#464353"/><ellipse cx="44.858" cy="6.484" rx="44.858" ry="6.484" transform="translate(414.644 318.299)" fill="#504f60"/><path d="M815.185,465.975c-.788-3.378-1.28-6.344-1.28-6.344a13.074,13.074,0,0,0-1.468-6.435v-.922h0v-6.793a23.146,23.146,0,0,1,1.716-3.56c1.213-2.135,0-9.959,0-9.959s-4.531-11.032-3.433-18.032-9.3-31.078-9.3-31.078a30.689,30.689,0,0,1,.977-6.878,5.248,5.248,0,0,0,.133-1.443v-.121c-.158-4.616-3.809-13.264-3.809-13.264l.491-16.485s2.329-9.7-1.468-22.775c-1.328-4.555-2.177-8.2-2.717-11.014-.061-.315-.121-.607-.17-.916,7.818-1.213,13.792-2.183,13.792-2.183s-4.537-18.978-7.6-22.3-5.513-13.762-5.513-13.762-1.6-13.4.983-17.316,2.942-10.675,2.942-10.675,5.877-4.246,6.617-6.168a31.469,31.469,0,0,0,1.959-8.418c0-2.25-.734-4.246-.491-5.459s-1.716-5.7-.734-7.83a5.745,5.745,0,0,0,.388-2.056.265.265,0,0,0,0-.061h0a28.818,28.818,0,0,0-.516-5.568,15.8,15.8,0,0,0-5.822-3.111l-.127-.509L800.4,203.2a6.473,6.473,0,0,0-.576-.34v-.485l-.055-1.929.922-4.331c1.82-7.533-8.243-8.655-8.243-8.655a5.307,5.307,0,0,0-2.851-2.5c-2.02-.71-.334,11.33.607,12.13.71.607,2.905,4.355,3.967,6.211h0l.17.3a4.249,4.249,0,0,0-.461.485l.382,2.614.061.4a10.846,10.846,0,0,0-1.607,2.735,5.9,5.9,0,0,1,1.474,4.246,13.6,13.6,0,0,0,.606,5.216c-.109-.127-1.4-1.522-2.693-1.183s-4.9,1.425-4.9,1.425-2.693.473-2.426,1.067-1.819,3.2-1.819,3.2l-7.242-6.866c-.073-.206-.152-.412-.212-.607a16.7,16.7,0,0,1-.606-3.033,16.563,16.563,0,0,0,2.317-.734,5,5,0,0,0,2-1.286,7.761,7.761,0,0,0,1.171-3.124c.57-2.111,1.82-3.985,2.687-5.992a19.481,19.481,0,0,0,1.365-10.784,7.036,7.036,0,0,0-1.11-3.154c-1.183-1.625-3.33-2.287-4.889-3.585s-2.565-3.281-4.385-4.246a8.7,8.7,0,0,0-5.5-.473,29.616,29.616,0,0,0-10.268,3.736c-1.055.607-2.22,1.353-3.433,1.128a4.482,4.482,0,0,1-2.475-1.82.613.613,0,0,1,.03-.1.605.605,0,0,1-.079-.1,12.792,12.792,0,0,0-1.128,5.422,6.68,6.68,0,0,0,.036.867v.552h0a1.381,1.381,0,0,1-.055.382,2.758,2.758,0,0,1-.679.977,6.547,6.547,0,0,0-.607.807,1,1,0,0,1,.1-.3,4.313,4.313,0,0,0-.752,2.287,2.335,2.335,0,0,0,.546,1.638,7.885,7.885,0,0,0,1.183.946,13.807,13.807,0,0,0-.218,2.426,14.017,14.017,0,0,0,6.829,11.954c.085.2.164.406.243.607a17.269,17.269,0,0,1,1.316,7.885,3.7,3.7,0,0,1-.085.57c-.03.188-.182.2-.261.3h0s-11.966.121-14.781-2.426-7.108,6.229-7.108,6.229-4.288.831-5.149,0-5.877-.115-5.877-.115a10.814,10.814,0,0,0-7.478-2.729,21.949,21.949,0,0,0-5.459-3.033h0l-.133-.049h0a6.114,6.114,0,0,0-2.7-.34s-5.883-4.852-7.6-7.472-9.886-12.294-9.923-12.337v-.467l-.091-1.407a5.044,5.044,0,0,1-.734.061c-.042-.139-.1-.3-.164-.491a27.128,27.128,0,0,0-1.735-3.985s0-1.777.516-2.226-.212-6.969-.212-6.969-5.3-12.391-10.05-3.142c0,0-8.976,5.986-1.443,12.961,0,0,3.033,1.456,3.433,2.608.279.746,1.3,2.838,1.983,4.246l.309.607-.085.073.109,1.165.048.449c-1.419.807-2.384,1.607-2.147,2.208a13.266,13.266,0,0,1,.855,3.2s10.42,13.052,11.766,18.626c0,0,27.942,16.606,37.131,17.789l-1.625,8.279a66.074,66.074,0,0,0-.364,6.763c.121,1.777-1.1,9.844-1.1,9.844s-1.6,11.863-2.942,13.525-1.1,8.776-1.1,8.776a59.959,59.959,0,0,1-1.819,10.08c-1.346,4.506-.37,10.086-.37,10.086s-4.652,10.675,6.5,3.439c0,0,5.459-.34,11.779-.558v.607c0,.813,0,1.692-.042,2.614-.085,6.114-.121,14.556.158,20.913.491,11.269,3.924,33.571,3.924,33.571v11.227a15.279,15.279,0,0,0-.327,3.2,20.841,20.841,0,0,0,3.033,11.214l.861,7.472s2.014,4.925,2.05,7.885a4.129,4.129,0,0,1-.085.71,4.775,4.775,0,0,0-.1,1.146c-.115,3.4,1.929,11.524,1.929,11.524s.121,8.182,1.346,8.661c1.049.406-1.4,4.713-2.129,5.95a1.69,1.69,0,0,1-.042-.23l-.152.243a5.807,5.807,0,0,0-.382,2.074,2.972,2.972,0,0,0,1.359,2.875c2.329,1.425,3.578,2.608,1.6,3.081a20.587,20.587,0,0,0-2.159.455.937.937,0,0,0-.1-.273,1.3,1.3,0,0,0-.807,1.431,6.065,6.065,0,0,0,.722,2.754A30.04,30.04,0,0,0,755,458.552l.94-.1a4.583,4.583,0,0,1-.546,1.013,3.905,3.905,0,0,1-1.383,1.213,4.281,4.281,0,0,1-1.68.576,4.731,4.731,0,0,0-3.469,1.686c-1.213,1.583-1.989,3.736.425,5.628l8.764,3.033s15.078,1.959,14.277-1.425-1.286-6.344-1.286-6.344a13.372,13.372,0,0,0-1.213-6,7.8,7.8,0,0,0-.534-.886l.534-.055s1.1-7.478,2.572-8.9c.34-.328.418-.607.34-.776.152-.406-.237-.643-.728-.782l-.109.3a7.148,7.148,0,0,0-1.462-.164s-.491-3.912,1.1-5.337a1.51,1.51,0,0,0,.309-1.164,6.257,6.257,0,0,0-.17-1.6.777.777,0,0,1-.055.1,57.458,57.458,0,0,0-3.518-9.2s-.121-3.554.861-4.979-.127-19.336-.127-19.336.37-8.655-.734-12.688,1.346-8.782,1.346-8.782v-.315l-.14-1.365a.35.35,0,0,0,0,.085c-.249-2.293-.716-6.447-1.061-8.364-.491-2.729.127-15.769.127-15.769l2.2-5.58,3.924,9.613,4.167,12.81a10.945,10.945,0,0,1,2.111,5.459v.4a6.976,6.976,0,0,0-.049.855,7.618,7.618,0,0,0,1.268,4.567s1.1,6.065,2.82,7.588,1.717,4.506,1.717,4.506,2.08,8.782,3.032,10.311c.825,1.3.867,4.852.861,5.962h0v.315s.291,3.142.279,5.774v.94a.265.265,0,0,0,0-.067,9.135,9.135,0,0,1-.255,2.135l-.036.121a1.546,1.546,0,0,1,.042-.443,22.288,22.288,0,0,0-.606,5.459c-.055,3.154.425,6.89,2.335,9.1,3.312,3.8,5.392,3.324,5.392,3.324s-1.589,4.743-3.554,5.7a.92.92,0,0,0-.206.133,2.05,2.05,0,0,0-.049-.279,2.311,2.311,0,0,0-.606,1.771,12.723,12.723,0,0,0,2.426,7.029,3.96,3.96,0,0,0,1.656.97,2.626,2.626,0,0,1-.309.188,6.591,6.591,0,0,1-.673.322,3.534,3.534,0,0,1-1,.261,4.671,4.671,0,0,0-3.469,1.686c-1.213,1.577-1.989,3.73.425,5.622l8.764,3.033S815.973,469.354,815.185,465.975Z" transform="translate(-317.091 -140.877)" fill="url(#a)"/><path d="M804.288,652.691l-8.491-3.033c-2.341-1.892-1.6-4.045-.412-5.628a4.537,4.537,0,0,1,3.36-1.686,4.027,4.027,0,0,0,1.619-.576,3.883,3.883,0,0,0,1.346-1.213,6.265,6.265,0,0,0,.964-3.281s9.316-2.729,11.863,0a6.9,6.9,0,0,1,1.128,1.656,13.859,13.859,0,0,1,1.213,6s.473,2.96,1.243,6.344S804.288,652.691,804.288,652.691Z" transform="translate(-363.759 -321.989)" fill="#2d293d"/><path d="M872.728,645.783l-8.491-3.033c-2.341-1.892-1.6-4.045-.412-5.622a4.482,4.482,0,0,1,3.354-1.686,3.147,3.147,0,0,0,.97-.261,6.443,6.443,0,0,0,.655-.322c2.371-1.3,2.311-4.506,2.311-4.506s9.31-2.729,11.863,0a6.723,6.723,0,0,1,.892,1.213,13.477,13.477,0,0,1,1.419,6.441s.473,2.966,1.213,6.344S872.728,645.783,872.728,645.783Z" transform="translate(-390.689 -319.266)" fill="#2d293d"/><path d="M819.382,637.262a6.9,6.9,0,0,1,1.128,1.656h0l-13.95,1.619a6.265,6.265,0,0,0,.964-3.281S816.834,634.533,819.382,637.262Z" transform="translate(-368.596 -321.984)" opacity="0.1"/><path d="M887.421,631.586V634.2c-2.171,3.572-12.67,2.79-15.721,1a6.449,6.449,0,0,0,.655-.321c2.371-1.3,2.311-4.506,2.311-4.506s9.31-2.729,11.863,0a6.718,6.718,0,0,1,.892,1.213Z" transform="translate(-394.228 -319.274)" opacity="0.1"/><path d="M854.352,524.617a23.779,23.779,0,0,0-1.656,3.56v9.371c-2.378,3.912-14.708,2.608-16.376.473s-3.409-7.691-1.535-8.655,3.439-5.7,3.439-5.7-2.02.473-5.222-3.324-2.25-12.215-1.656-14.229,0-8.776,0-8.776.121-4.749-.825-6.29-2.966-10.311-2.966-10.311,0-2.966-1.662-4.506-2.729-7.594-2.729-7.594a7.782,7.782,0,0,1-1.183-5.1c.352-2.966-2.02-6.168-2.02-6.168l-4.033-12.816-3.8-9.607L810,440.524s-.607,13.046-.115,15.769,1.213,9.965,1.213,9.965-2.371,4.743-1.3,8.776.679,12.7.679,12.7,1.068,17.9.115,19.33-.831,4.986-.831,4.986,4.852,10.432,3.324,11.857-1.067,5.337-1.067,5.337,3.318,0,1.9,1.425-2.493,8.9-2.493,8.9l-14.344,1.68a29.83,29.83,0,0,1-3.208-6.065c-1.9-4.409.352-3.912,2.262-4.391s.7-1.656-1.553-3.081-.946-4.628-.946-4.628,3.439-5.81,2.25-6.283-1.3-8.661-1.3-8.661-2.371-9.7-1.777-12.337-1.9-8.892-1.9-8.892l-.831-7.472a20.56,20.56,0,0,1-2.608-14.12V453.795s-3.324-22.3-3.8-33.565c-.3-7.217-.218-17.067-.121-23.211.061-3.445.121-5.732.121-5.732L834.9,385.95a42.806,42.806,0,0,0,.928,7.612c.528,2.814,1.346,6.459,2.632,11.014,3.675,13.046,1.425,22.769,1.425,22.769l-.479,16.491s4.506,11.026,3.56,14.823a31.618,31.618,0,0,0-.958,6.89s10.08,24.079,9.013,31.078,3.318,18.032,3.318,18.032S855.541,522.482,854.352,524.617Z" transform="translate(-359.503 -223.574)" fill="#464353"/><path d="M852.05,511.35l15.6-2.08S858.813,518.289,852.05,511.35Z" transform="translate(-386.496 -272.099)" opacity="0.05"/><path d="M872.2,484.14s.534,5.519-2.845,7.594C869.36,491.734,875.407,490.787,872.2,484.14Z" transform="translate(-393.307 -262.21)" opacity="0.1"/><path d="M860.507,455.2s-13.04,10.735-17.783,9.844S860.507,455.2,860.507,455.2Z" transform="translate(-382.568 -250.823)" opacity="0.1"/><path d="M813.547,521s-9.9,2.25-10.2,6.229S813.547,521,813.547,521Z" transform="translate(-367.329 -276.714)" opacity="0.1"/><path d="M816.8,602.56s-13.992,2.608-10.02,4.385a67.926,67.926,0,0,0,10.5,3.2S821.8,610.384,816.8,602.56Z" transform="translate(-368.403 -308.807)" opacity="0.05"/><g transform="translate(423.947 167.343)" opacity="0.05"><path d="M801.412,613.136a2.76,2.76,0,0,1-1.28-2.026l-.146.249s-1.3,3.2.952,4.622c.255.164.5.328.728.485.419-.079.867-.14,1.3-.249C804.875,615.744,803.668,614.561,801.412,613.136Z" transform="translate(-789.809 -479.515)"/><path d="M831.875,611.306c.388-.352.376-1.262.14-2.426a6.819,6.819,0,0,0-.795,3.433A2.96,2.96,0,0,1,831.875,611.306Z" transform="translate(-802.246 -478.637)"/><path d="M828.136,515.59a16.177,16.177,0,0,0-.946,4.361,17.589,17.589,0,0,1,1.086-3Z" transform="translate(-800.66 -441.929)"/><path d="M881.421,504.488a5.562,5.562,0,0,0,.127-1.3c-.176.885-.3,1.7-.388,2.426C881.239,505.246,881.324,504.894,881.421,504.488Z" transform="translate(-821.897 -437.05)"/><path d="M827.984,583.408a7.6,7.6,0,0,0,.352-2.638,8.957,8.957,0,0,0-.685,3.33,3.184,3.184,0,0,1,.334-.691Z" transform="translate(-800.841 -467.576)"/><path d="M819.775,622a47.073,47.073,0,0,0-1.632,7.278L803.8,630.934a29.83,29.83,0,0,1-3.208-6.065,10.964,10.964,0,0,1-.406-1.043c-.861.394-1.213,1.286-.073,3.888a30.318,30.318,0,0,0,3.214,6.065l14.344-1.662s1.067-7.472,2.487-8.9C820.884,622.534,820.436,622.176,819.775,622Z" transform="translate(-789.721 -483.8)"/><path d="M794.579,511.04s.115,8.182,1.3,8.655h0c.607-1.353,1-2.638.467-2.851-1.213-.473-1.3-8.661-1.3-8.661s-2.371-9.7-1.777-12.337-1.9-8.891-1.9-8.891l-.831-7.472a20.561,20.561,0,0,1-2.608-14.12V453.839s-3.324-22.3-3.8-33.565c-.3-7.218-.218-17.067-.121-23.211,0-1.11.036-2.092.055-2.923l-.406.042s-.067,2.281-.121,5.732c-.1,6.144-.188,15.994.121,23.205.473,11.269,3.791,33.571,3.791,33.571v11.524a20.573,20.573,0,0,0,2.614,14.114l.825,7.472s2.493,6.283,1.9,8.9S794.579,511.04,794.579,511.04Z" transform="translate(-783.448 -394.14)"/><path d="M869.581,627.8a13.871,13.871,0,0,1-2.275-5.635c-1.462,1.322.218,6.453,1.82,8.491,1.656,2.135,13.992,3.439,16.376-.479v-2.256C882.269,631.1,871.146,629.824,869.581,627.8Z" transform="translate(-816.225 -483.866)"/><path d="M900.062,609.309a23.973,23.973,0,0,0-1.662,3.56v1.68a24.879,24.879,0,0,1,1.213-2.378,7.279,7.279,0,0,0,.522-2.942S900.08,609.285,900.062,609.309Z" transform="translate(-828.68 -478.775)"/><path d="M868.212,601.078a23.442,23.442,0,0,0,1.171-2.82s-2.02.473-5.222-3.324c-2.329-2.76-2.462-7.976-2.129-11.384-.607,2.02-1.547,10.438,1.656,14.235C865.78,600.266,867.363,600.921,868.212,601.078Z" transform="translate(-814.128 -468.67)"/><path d="M848.829,526.753a63.211,63.211,0,0,1,.237,7.029,9.584,9.584,0,0,1,.243-1.1c.607-2.02,0-8.776,0-8.776s.121-4.749-.831-6.29-2.936-10.323-2.936-10.323,0-2.966-1.662-4.506-2.729-7.594-2.729-7.594a7.805,7.805,0,0,1-1.213-5.1c.358-2.966-2.014-6.168-2.014-6.168l-4.033-12.81-3.8-9.607-2.141,5.58s0,.7-.073,1.82l1.735-4.531,3.8,9.589,4.033,12.81s2.371,3.2,2.014,6.168a7.806,7.806,0,0,0,1.213,5.1s1.068,6.065,2.729,7.594,1.656,4.506,1.656,4.506,2.02,8.776,2.966,10.311S848.829,526.753,848.829,526.753Z" transform="translate(-800.932 -420.649)"/></g><path d="M871.278,202.032l-.892,4.331.055,1.929.036,1.419-4.949.509-.552-1.025h0c-1.025-1.856-3.154-5.628-3.839-6.211-.916-.764-2.547-12.81-.607-12.094a5.173,5.173,0,0,1,2.754,2.493S873.03,194.5,871.278,202.032Z" transform="translate(-389.475 -146.809)" fill="#ffcdd3"/><path d="M873.951,220.643l-4.949.509-.552-1.025h0a4.361,4.361,0,0,1,5.459-.9Z" transform="translate(-392.949 -157.742)" opacity="0.1"/><path d="M875.016,223.282l-6.526,1.51-.139-.97-.37-2.614a4.491,4.491,0,0,1,6.32-.861l.328,1.328Z" transform="translate(-392.764 -158.033)" fill="#ff8a05"/><path d="M695.078,196.554l-6.969,3.736-.607-1.31c-.661-1.389-1.65-3.481-1.923-4.246-.412-1.152-3.318-2.608-3.318-2.608-7.278-6.969,1.395-12.961,1.395-12.961,4.6-9.249,9.7,3.142,9.7,3.142s.716,6.532.212,6.969-.5,2.226-.5,2.226a27.377,27.377,0,0,1,1.68,3.985C694.963,196.148,695.078,196.554,695.078,196.554Z" transform="translate(-318.542 -140.858)" fill="#ffcdd3"/><path d="M700.365,209.346l-6.969,3.736-.607-1.31c.983-.825,4.47-3.639,5.616-3.524a8.4,8.4,0,0,0,1.65.042C700.25,208.939,700.365,209.346,700.365,209.346Z" transform="translate(-323.829 -153.649)" opacity="0.1"/><path d="M701.2,211.76l-7.83,3.857-.158-1.68-.109-1.165s4.537-3.888,5.877-3.736a7.127,7.127,0,0,0,2.044,0l.091,1.407Z" transform="translate(-323.951 -153.96)" fill="#ff8a05"/><path d="M829.029,239.545s-34.135,3.851-27.754,1.777c4.44-1.45,6.2-4.246,6.575-7.4a17.774,17.774,0,0,0-1.268-7.885,34.379,34.379,0,0,0-3.033-6.168s26.08-14.35,20.87-1.3a21.037,21.037,0,0,0-1.48,6.18,17.46,17.46,0,0,0,.673,6.259,18.638,18.638,0,0,0,5.416,8.54Z" transform="translate(-366.203 -155.555)" fill="#ffcdd3"/><path d="M826.392,218.536a21.036,21.036,0,0,0-1.48,6.18c-2.456,2.068-5.149,1.929-8.613,1.929-2.656,0-5.6.643-7.727-.637a34.374,34.374,0,0,0-3.033-6.168S831.614,205.49,826.392,218.536Z" transform="translate(-368.195 -155.543)" opacity="0.1"/><circle cx="14.114" cy="14.114" r="14.114" transform="translate(433.53 43.784)" fill="#ffcdd3"/><path d="M829.029,250.2s-34.135,3.851-27.754,1.777c4.44-1.45,6.2-4.246,6.575-7.4,1.7-1.82,5.113-3.172,7.278-3.876a10.214,10.214,0,0,1,6.186-.1,8.794,8.794,0,0,1,2.25,1.043A18.639,18.639,0,0,0,829.029,250.2Z" transform="translate(-366.203 -166.212)" opacity="0.1"/><path d="M875.256,224.619l-6.526,1.51-.139-.97a5.774,5.774,0,0,1,6.277-2.147Z" transform="translate(-393.004 -159.37)" opacity="0.1"/><path d="M701.268,212.672l-7.83,3.857-.158-1.68a57.1,57.1,0,0,1,7.885-3.5Z" transform="translate(-324.022 -154.871)" opacity="0.1"/><path d="M835.888,393.582c-13.228,2.111-32.03,4.8-35.014,3.894-2.481-.752-10.39-.673-17.273-.437.061-3.445.121-5.732.121-5.732l51.238-5.337A42.814,42.814,0,0,0,835.888,393.582Z" transform="translate(-359.562 -223.582)" opacity="0.1"/><path d="M812.2,322.069s-43.53,7.472-48.2,6.065-28.658.115-28.658.115c-10.8,7.236-6.29-3.439-6.29-3.439s-.946-5.574.358-10.08a61.587,61.587,0,0,0,1.789-10.092s-.237-7.12,1.067-8.782,2.851-13.519,2.851-13.519,1.183-8.067,1.067-9.844.352-6.763.352-6.763l1.547-8.3c-8.9-1.183-35.942-17.789-35.942-17.789-1.3-5.574-11.384-18.62-11.384-18.62a13.726,13.726,0,0,0-.831-3.2c-.71-1.9,9.965-5.7,9.965-5.7s7.945,9.7,9.607,12.336,7.351,7.472,7.351,7.472a5.72,5.72,0,0,1,2.608.34l.139.042h0a21.144,21.144,0,0,1,5.307,3.033,10.311,10.311,0,0,1,7.236,2.729s4.852-.716,5.7.115,4.979,0,4.979,0,4.149-8.776,6.878-6.229S764,234.385,764,234.385c1.541-2.05,5.295-3.518,7.642-4.246a10.256,10.256,0,0,1,6.186-.1,7.847,7.847,0,0,1,2.426,1.213l7.042,6.878s2.014-2.614,1.777-3.2,2.371-1.067,2.371-1.067,3.439-1.067,4.743-1.425,2.5,1.055,2.608,1.183a14.181,14.181,0,0,1-.607-5.216,6.162,6.162,0,0,0-1.425-4.246c4.149-10.2,13.519-1.662,13.519-1.662s1.068,5.574.121,7.709.946,6.641.71,7.83.479,3.2.479,5.459a33.35,33.35,0,0,1-1.9,8.418c-.685,1.9-6.4,6.168-6.4,6.168s-.358,6.763-2.851,10.675-.928,17.292-.928,17.292,2.371,10.438,5.337,13.762S812.2,322.069,812.2,322.069Z" transform="translate(-322.69 -155.174)" fill="#3f3d56"/><path d="M783.082,260.018s-1.3-3.912-2.493-4.246a27.436,27.436,0,0,1-3.439-1.541l.764-1.462s4.452,1.213,5.168,2.529S783.082,260.018,783.082,260.018Z" transform="translate(-357.024 -171.17)" opacity="0.1"/><path d="M740.616,248.439c-.237,1.213-10.8,2.25-10.8,2.25l5.337-5.349h0l.133.049h0A21.146,21.146,0,0,1,740.616,248.439Z" transform="translate(-338.4 -168.246)" opacity="0.1"/><circle cx="0.946" cy="0.946" r="0.946" transform="translate(370.726 62.968)" fill="#575988"/><circle cx="0.946" cy="0.946" r="0.946" transform="translate(371.939 64.867)" fill="#575988"/><circle cx="0.946" cy="0.946" r="0.946" transform="translate(373.128 66.62)" fill="#575988"/><circle cx="0.946" cy="0.946" r="0.946" transform="translate(374.371 68.512)" fill="#575988"/><circle cx="0.77" cy="0.77" r="0.77" transform="translate(486.352 68.585)" fill="#575988"/><circle cx="0.77" cy="0.77" r="0.77" transform="translate(486.473 70.337)" fill="#575988"/><circle cx="0.77" cy="0.77" r="0.77" transform="translate(486.576 72.084)" fill="#575988"/><path d="M787,317.72c-.115-.139,26.626,33.625,47.381,14.114C834.4,331.839,801.6,336.285,787,317.72Z" transform="translate(-360.899 -196.726)" opacity="0.1"/><path d="M761.7,346.66s16,.437,17.674,5.04v4.791a3.069,3.069,0,0,1-2.978,0c-1.613-.873-11.287-5.786-14.7-3.421Z" transform="translate(-350.944 -208.114)" opacity="0.1"/><path d="M762.19,346.66s15.3.418,16.9,4.81v4.561a2.936,2.936,0,0,1-2.851,0c-1.541-.825-10.79-5.513-14.053-3.257Z" transform="translate(-351.137 -208.114)" fill="#3f3d56"/><path d="M776.1,289.38a51.482,51.482,0,0,0,6.2,10.644,41.766,41.766,0,0,0,9.7,9.383S776.367,291.576,776.1,289.38Z" transform="translate(-356.61 -185.575)" opacity="0.1"/><path d="M767.47,258.73s2.669,11.524,9.547,15.436Z" transform="translate(-353.215 -173.515)" opacity="0.1"/><path d="M760.565,260.648c-.067-.212-2.371,9.1,8.867,14.271C769.433,274.919,764.659,273.3,760.565,260.648Z" transform="translate(-350.404 -174.268)" opacity="0.1"/><path d="M875.907,247.905c-.176,0,5.544,3.639,7.1,5.337C883.01,253.242,879.286,247.662,875.907,247.905Z" transform="translate(-395.882 -169.252)" opacity="0.1"/><path d="M808.615,214.113a2.226,2.226,0,0,0,2.426,2.2c4.3.267,8.782.455,12.737-1.213a4.853,4.853,0,0,0,1.941-1.286,7.98,7.98,0,0,0,1.128-3.124,45.422,45.422,0,0,1,2.6-5.992,20.076,20.076,0,0,0,1.4-10.766,7.278,7.278,0,0,0-1.08-3.148c-1.14-1.632-3.221-2.293-4.731-3.591s-2.481-3.281-4.246-4.246a8.151,8.151,0,0,0-5.325-.473,27.954,27.954,0,0,0-9.935,3.73c-1.025.607-2.147,1.353-3.324,1.128a4.445,4.445,0,0,1-2.426-1.874,13.138,13.138,0,0,0-1.013,6.156,2.645,2.645,0,0,1-.03.928,2.79,2.79,0,0,1-.661.977c-1.061,1.213-1.722,3.184-.673,4.434.455.54,1.158.837,1.6,1.389.795.989.528,2.426.51,3.688a1.9,1.9,0,0,0,.315,1.249,1.82,1.82,0,0,0,1.741.419,4.737,4.737,0,0,1,1.856-.176,3.111,3.111,0,0,1,1.613,1.213C807,208.29,807.778,211.068,808.615,214.113Z" transform="translate(-364.786 -143.424)" fill="#2d293d"/><g transform="translate(432.091 41.91)" opacity="0.1"><path d="M826.222,220.393a4.851,4.851,0,0,1-1.941,1.286c-3.979,1.656-8.455,1.468-12.737,1.213a2.232,2.232,0,0,1-2.432-2.208c-.837-3.033-1.607-5.816-3.6-8.346a3.118,3.118,0,0,0-1.613-1.243,4.974,4.974,0,0,0-1.856.176,1.819,1.819,0,0,1-1.741-.412,1.9,1.9,0,0,1-.315-1.249c0-1.274.285-2.7-.509-3.688-.443-.552-1.146-.849-1.6-1.395a2.766,2.766,0,0,1-.273-2.826c-.758,1.213-1.08,2.735-.2,3.779.455.54,1.158.837,1.6,1.389.795.995.528,2.426.51,3.688a1.886,1.886,0,0,0,.309,1.249,1.82,1.82,0,0,0,1.747.419,4.737,4.737,0,0,1,1.856-.176,3.111,3.111,0,0,1,1.613,1.213c1.983,2.529,2.76,5.307,3.6,8.352a3.032,3.032,0,0,0,1.049,1.923,2.942,2.942,0,0,0,1.334.291c4.3.267,8.782.461,12.737-1.213a4.8,4.8,0,0,0,1.941-1.286,3.71,3.71,0,0,0,.606-1.14A.3.3,0,0,1,826.222,220.393Z" transform="translate(-796.877 -192.984)"/><path d="M799.974,194.171a2.075,2.075,0,0,0,.431-.716,2.642,2.642,0,0,0,0-.928,13.156,13.156,0,0,1,.661-5.107l-.079-.091a13.04,13.04,0,0,0-1.013,6.15,4.38,4.38,0,0,1,0,.691Z" transform="translate(-798.08 -187.33)"/></g><path d="M812.08,248.679s17.631,2.341,19.214-.309" transform="translate(-370.768 -169.438)" opacity="0.1"/><path d="M868.59,236.85s9.8,0,11.954,3.688" transform="translate(-393.004 -164.905)" opacity="0.1"/><path d="M950.591,771.495a15.545,15.545,0,0,1-10.584,3.954c-.995,0-2.371.188-2.378,1.183a1.667,1.667,0,0,0,.291.813,9.734,9.734,0,0,0,5.459,4.288,19.294,19.294,0,0,0,6.6.419l6.459-.334c1.213-.067,2.426-.127,3.639-.279s2.535-.4,3.8-.607a49.738,49.738,0,0,1,9.407-.437,2.848,2.848,0,0,0,2.317-.607c.5-.606.243-1.765.055-2.675-.388-1.874,0-3.839-.358-5.719-.607-3.3-3.463-5.829-6.593-7.023-2.911-1.1-8.067-2.371-10.82-.528C954.988,765.878,953.211,769.111,950.591,771.495Z" transform="translate(-420.17 -371.941)" fill="#3f3d56"/><path d="M961.165,586c.57,2.711,3.2,4.785,3.269,7.551.067,2.22-1.516,4.082-2.657,5.98a39.894,39.894,0,0,0-2.711,6.138,93.761,93.761,0,0,1-7.957,15.83c-1.516,2.426-3.215,5.016-2.869,7.836a11.742,11.742,0,0,0,1.377,3.748l4.549,9.037a26.166,26.166,0,0,1,2.323,5.707c.394,1.716.431,3.494.661,5.24.716,5.544,3.318,11.123,1.777,16.5-.133.461-.607,1.019-.977.7,1.5,2.808,2.711,5.635,2.6,8.819-.061,1.668-.57,3.409.042,4.961A5.431,5.431,0,0,1,961.3,686a12.456,12.456,0,0,1-.261,1.34c-.127,1.28,1.049,2.347,2.268,2.754s2.547.376,3.779.746c2.365.71,4.058,2.747,6.065,4.161a12.913,12.913,0,0,0,6.987,2.274,1.759,1.759,0,0,0,1.031-.206,1.668,1.668,0,0,0,.57-1.249,6.939,6.939,0,0,0-2.5-6.029,2.73,2.73,0,0,1-.928-.97,2.341,2.341,0,0,1-.085-1.086,81.74,81.74,0,0,0-.267-14.92,22.657,22.657,0,0,1-.237-4.749,19.4,19.4,0,0,0,.382-3.948,20.974,20.974,0,0,0-1.213-3.785c-.7-2.256-.51-4.682-.607-7.042a61.762,61.762,0,0,0-2-12.13,9.174,9.174,0,0,0-1.886-4.379c-.946-.989-2.475-1.935-2.117-3.251a3.852,3.852,0,0,1,.867-1.292,5.186,5.186,0,0,0,1.08-3.954,1.777,1.777,0,0,0,2.044-.958,31.979,31.979,0,0,0,16-18.2,6.006,6.006,0,0,1,.716-1.625,7.324,7.324,0,0,1,2.929-1.9c3.312-1.668,5.6-4.791,7.7-7.848a13.872,13.872,0,0,0,3.378-9.8l.188-7.127a3.849,3.849,0,0,0-.133-1.4,3.487,3.487,0,0,0-.77-1.128,13.7,13.7,0,0,0-7.557-4.076c-1.941-.346-3.924-.279-5.889-.443-3.809-.315-7.569-1.5-11.378-1.213-5.986.443-11.318,4.591-14.138,9.892C964.331,584.342,963.288,585.967,961.165,586Z" transform="translate(-424.327 -296.993)" fill="#464353"/><path d="M910.489,508.13a7.963,7.963,0,0,1-.437,3.245,2.267,2.267,0,0,1-2.663,1.365c.309-.7-.509-1.492-1.274-1.407a2.383,2.383,0,0,0-1.68,1.444,5.368,5.368,0,0,0-.485,3.293c.243,1.395,1.049,2.735.837,4.136-.17,1.165-1.025,2.323-.57,3.4a5.512,5.512,0,0,0,1.1,1.316,3.712,3.712,0,0,1-.394,5.095l11.475.23c-.419,1.917.443,3.876,1.425,5.58a35.178,35.178,0,0,0,26.226,17.122,2.28,2.28,0,0,0-.552,3.487,3.241,3.241,0,0,0,3.688.212,26.241,26.241,0,0,0,3.154-2.365,9.7,9.7,0,0,1,6.484-1.747c1.437.14,2.832.607,4.276.679,4.246.224,7.885-2.832,11.973-4.082,2.978-.916,6.356-.916,8.855-2.778a3.529,3.529,0,0,0,1.65-3.415,5.707,5.707,0,0,0-1.213-2.008,34.677,34.677,0,0,1-3.318-6.217,37.186,37.186,0,0,0-8.291-11.111,74.175,74.175,0,0,0-8.224-6.235,14.02,14.02,0,0,0-2.22-1.34,24.881,24.881,0,0,1-3.033-1.213c-1.346-.849-2.123-2.347-3.16-3.554-2.274-2.657-5.768-3.876-8.57-5.962-1.88-1.4-3.542-3.245-5.786-3.918-1.092-.334-2.25-.358-3.342-.685-2.481-.752-4.288-2.954-6.72-3.845-1.923-.7-4.045-.522-6.065-.77a14.2,14.2,0,0,1-6.338-2.414,7.521,7.521,0,0,0-2.02-1.177c-3.075-.934-3.324,4.791-3.639,6.775C911.229,502.216,910.489,505.146,910.489,508.13Z" transform="translate(-406.888 -265.457)" fill="#ff8a05"/><path d="M892.144,543.936c.516,5.592-3.706,11.008-2.475,16.485.261,1.164.764,2.274.946,3.457.516,3.245-1.425,6.32-3.275,9.037l-15.891,23.321a14.665,14.665,0,0,1-2.268,2.8c-3.033,2.7-7.594,2.426-11.584,3.227a20.016,20.016,0,0,0-7.763,3.433.5.5,0,0,0-.1.7,6.672,6.672,0,0,0,5.768,2.711c.418.546,0,1.359-.576,1.753-.849.606-2.026.746-2.2,2.2a2.426,2.426,0,0,0,.291,1.456,4.53,4.53,0,0,0,2.778,1.929c5.5,1.686,11.445-1.274,15.563-5.295s7.072-9.1,11.111-13.186c2.238-2.268,4.779-4.2,7.084-6.4,4.6-4.385,8.176-9.7,11.621-15.035A16.641,16.641,0,0,0,903.7,571.4c.431-1.862.23-3.748.722-5.55.643-2.359,2.371-4.246,3.809-6.223,2.82-3.882,4.707-8.631,4.331-13.416s-3.336-9.5-7.848-11.13a7.054,7.054,0,0,0-4.4-.267c-1.85.57-3.215,2.1-4.476,3.566l-3.033,3.481a8.121,8.121,0,0,0-1.7,2.675,2.8,2.8,0,0,0,.607,2.972" transform="translate(-385.546 -282.061)" fill="#fbbebe"/><path d="M926.334,512.048c-2.086.121-4.385.328-5.859,1.82a8.339,8.339,0,0,0-1.48,2.317c-1.431,2.917-2.826,5.968-2.93,9.219-.085,2.6.667,5.137,1.061,7.7.328,2.135-.5,4.312-.661,6.471a44.92,44.92,0,0,0,8.358-3.214,27.988,27.988,0,0,1,4.895-2.541c2.493-.831,6.672.606,9.043,1.759.127-1.662-1.122-4.561-.989-6.229a6.957,6.957,0,0,1,.37-2.062,12.512,12.512,0,0,1,1.256-2,8.164,8.164,0,0,0-.734-9.565c-2.1-2.365-5.4-3.251-8.54-3.639a36.933,36.933,0,0,0-5.962-.206" transform="translate(-411.682 -273.112)" fill="#ff8a05"/></g></g></svg>