<svg xmlns="http://www.w3.org/2000/svg" width="204" height="56" viewBox="0 0 204 56">
  <g id="Logo" transform="translate(-8.384 -1.735)">
    <text id="BabelMarts" transform="translate(67.384 40.735)" fill="#ff8a05" font-size="30" font-family="Cairo-Light, Cairo" font-weight="300"><tspan x="0" y="0">BabelMarts</tspan></text>
    <path id="Path_14" data-name="Path 14" d="M201.267,176.77a24.5,24.5,0,1,0,24.5,24.5,24.5,24.5,0,0,0-24.5-24.5m0,45.8a21.3,21.3,0,0,1-8.56-40.81v32.419h3.027a27.287,27.287,0,0,0,7.664,1.37c9.523,0,10.444-5.81,10.444-5.81V197.363c0-2.745-3.5-6.571-8.342-6.571s-6.294,1.453-6.294,1.453V182.178a1.915,1.915,0,0,0-1.453-1.922,21.036,21.036,0,0,1,3.515-.29,21.3,21.3,0,1,1,0,42.6M199.2,210.028v-11.77s.968-2.832,3.224-2.832h3.554s2.1.644,2.1,2.1v11.053s-.726,2.261-2.58,2.261h-4.764s-1.53,0-1.53-.808" transform="translate(-168.386 -171.542)" fill="#ff8a05"/>
  </g>
</svg>
