<svg xmlns="http://www.w3.org/2000/svg" width="206" height="213.302" viewBox="0 0 206 213.302"><g transform="translate(67 -0.434)"><path d="M85.832,18.476a67.356,67.356,0,1,0,67.356,67.356A67.356,67.356,0,0,0,85.832,18.476Zm0,125.989A58.626,58.626,0,0,1,62.555,32.028V120.8a40.5,40.5,0,0,1,13.268,2.473c6.073,2.474,19.876,4.255,29.911,0,8.582-3.639,15.068-10.569,15.068-22.039s.722-28.566-2.474-32.835c-3.37-4.5-18.666-19.34-39.806-6.746a35.065,35.065,0,0,0,1.349-10.121V38.042s.122-6.673-7.522-9.261A58.628,58.628,0,1,1,85.832,144.465Zm-5.96-33.558V79.871s1.234-9.895,11.861-10.12,11.528,5.4,11.528,11.47v21.14s-.45,11.582-11.582,11.582C82.8,113.943,79.871,110.907,79.871,110.907Z" transform="translate(-50.043 -18.043)" fill="#ff8a05"/><text transform="translate(-67 189.735)" fill="#ff8a05" font-size="42" font-family="Cairo-Regular, Cairo"><tspan x="0" y="0">BabelMarts</tspan></text></g></svg>