<svg xmlns="http://www.w3.org/2000/svg" width="40.961" height="40.961" viewBox="0 0 40.961 40.961"><path d="M34.962,6A20.481,20.481,0,0,0,6,34.962,20.481,20.481,0,0,0,34.962,6ZM20.48,38.561a18.08,18.08,0,1,1,18.08-18.08A18.1,18.1,0,0,1,20.48,38.561Z" fill="#fff"/><g transform="translate(14.139 7.712)"><path d="M184.361,107.969H181.79a2.656,2.656,0,1,1,0-5.312h5.141a1.2,1.2,0,1,0,0-2.4h-2.656V97.6a1.2,1.2,0,0,0-2.4,0v2.656h-.085a5.056,5.056,0,1,0,0,10.112h2.571a2.656,2.656,0,0,1,0,5.312h-5.141a1.2,1.2,0,0,0,0,2.4h2.656v2.656a1.2,1.2,0,0,0,2.4,0v-2.656h.085a5.056,5.056,0,0,0,0-10.112Z" transform="translate(-176.734 -96.401)" fill="#fff"/></g></svg>