<svg xmlns="http://www.w3.org/2000/svg" width="38.395" height="47.029" viewBox="0 0 38.395 47.029"><path d="M32.151,382.967a37.492,37.492,0,0,0-4.5-.908,1.373,1.373,0,0,0-1.566,1.361v.007a1.376,1.376,0,0,0,1.184,1.361,35.329,35.329,0,0,1,3.926.776c3.561.937,4.411,1.954,4.443,2.169-.032.221-.882,1.238-4.443,2.175a49.257,49.257,0,0,1-12,1.319,49.255,49.255,0,0,1-12-1.319c-3.561-.937-4.411-1.954-4.444-2.169.033-.221.882-1.238,4.444-2.175a35.322,35.322,0,0,1,3.925-.776,1.376,1.376,0,0,0,1.184-1.361v-.007a1.373,1.373,0,0,0-1.566-1.361,37.492,37.492,0,0,0-4.5.908C2.1,384.1,0,385.7,0,387.736s2.1,3.637,6.244,4.769A51.319,51.319,0,0,0,19.2,393.982,51.319,51.319,0,0,0,32.15,392.5c4.143-1.132,6.244-2.737,6.244-4.769s-2.1-3.637-6.244-4.769Zm0,0" transform="translate(0.001 -346.953)" fill="#fff"/><path d="M164,293.762v11.32a1.377,1.377,0,0,0,.421.991l2.758,2.664a1.378,1.378,0,0,0,1.915,0l2.753-2.664a1.378,1.378,0,0,0,.42-.99v-11.32a15.2,15.2,0,0,1-8.267,0Zm0,0" transform="translate(-148.936 -266.779)" fill="#fff"/><path d="M86.4,24.8A12.4,12.4,0,1,0,74,12.4,12.415,12.415,0,0,0,86.4,24.8Zm2.141-19.89a1.377,1.377,0,0,1,1.706-.942,6.667,6.667,0,0,1,4.589,4.6,1.378,1.378,0,1,1-2.65.757,3.926,3.926,0,0,0-2.7-2.71,1.378,1.378,0,0,1-.942-1.706Zm0,0" transform="translate(-67.203)" fill="#fff"/></svg>